<?xml version="1.0" encoding="UTF-8" standalone="no"?>
<!DOCTYPE svg PUBLIC "-//W3C//DTD SVG 1.1//EN"
 "http://www.w3.org/Graphics/SVG/1.1/DTD/svg11.dtd">
<!-- Generated by graphviz version 2.48.0 (20210717.1556)
 -->
<!-- Pages: 1 -->
<svg width="645pt" height="210pt"
 viewBox="0.00 0.00 644.58 210.00" xmlns="http://www.w3.org/2000/svg" xmlns:xlink="http://www.w3.org/1999/xlink">
<g id="graph0" class="graph" transform="scale(1 1) rotate(0) translate(4 206)">
<polygon fill="white" stroke="transparent" points="-4,4 -4,-206 640.58,-206 640.58,4 -4,4"/>
<g id="clust1" class="cluster">
<title>cluster_inner</title>
<polygon fill="none" stroke="black" points="195.49,-8 195.49,-194 533.49,-194 533.49,-8 195.49,-8"/>
<text text-anchor="middle" x="364.49" y="-178.8" font-family="Times,serif" font-size="14.00">primary system equation</text>
</g>
<!-- DM -->
<g id="node1" class="node">
<title>DM</title>
<polygon fill="none" stroke="black" points="239.49,-103 203.49,-103 203.49,-79 239.49,-79 239.49,-73 257.49,-91 239.49,-109 239.49,-103"/>
<text text-anchor="middle" x="230.49" y="-87.3" font-family="Times,serif" font-size="14.00">DM</text>
</g>
<!-- DM&#45;&gt;DM -->
<g id="edge2" class="edge">
<title>DM:e&#45;&gt;DM:w</title>
<path fill="none" stroke="black" d="M257.49,-91C270.99,-103 270.99,-127 230.49,-127 197.9,-127 191.53,-111.46 197.32,-99.14"/>
<polygon fill="black" stroke="black" points="200.24,-101.08 203.49,-91 194.66,-96.86 200.24,-101.08"/>
<text text-anchor="middle" x="230.49" y="-130.8" font-family="Times,serif" font-size="14.00">d(n, t)</text>
</g>
<!-- DS -->
<g id="node2" class="node">
<title>DS</title>
<polygon fill="none" stroke="black" points="364.49,-103 328.49,-103 328.49,-79 364.49,-79 364.49,-73 382.49,-91 364.49,-109 364.49,-103"/>
<text text-anchor="middle" x="355.49" y="-87.3" font-family="Times,serif" font-size="14.00">DS</text>
</g>
<!-- DM&#45;&gt;DS -->
<g id="edge1" class="edge">
<title>DM&#45;&gt;DS</title>
<path fill="none" stroke="black" d="M257.57,-91C275.27,-91 298.89,-91 318.39,-91"/>
<polygon fill="black" stroke="black" points="318.44,-94.5 328.44,-91 318.44,-87.5 318.44,-94.5"/>
<text text-anchor="middle" x="292.99" y="-94.8" font-family="Times,serif" font-size="14.00">d(n, t)</text>
</g>
<!-- systemi -->
<g id="node3" class="node">
<title>systemi</title>
<path fill="none" stroke="black" d="M471.49,-45C471.49,-45 513.49,-45 513.49,-45 519.49,-45 525.49,-51 525.49,-57 525.49,-57 525.49,-125 525.49,-125 525.49,-131 519.49,-137 513.49,-137 513.49,-137 471.49,-137 471.49,-137 465.49,-137 459.49,-131 459.49,-125 459.49,-125 459.49,-57 459.49,-57 459.49,-51 465.49,-45 471.49,-45"/>
<text text-anchor="middle" x="492.49" y="-121.8" font-family="Times,serif" font-size="14.00">system n</text>
<polyline fill="none" stroke="black" points="459.49,-114 525.49,-114 "/>
<text text-anchor="middle" x="492.49" y="-98.8" font-family="Times,serif" font-size="14.00">[...]</text>
<polyline fill="none" stroke="black" points="459.49,-91 525.49,-91 "/>
<text text-anchor="middle" x="492.49" y="-75.8" font-family="Times,serif" font-size="14.00">system 2</text>
<polyline fill="none" stroke="black" points="459.49,-68 525.49,-68 "/>
<text text-anchor="middle" x="492.49" y="-52.8" font-family="Times,serif" font-size="14.00">system 1</text>
</g>
<!-- DS&#45;&gt;systemi -->
<g id="edge3" class="edge">
<title>DS&#45;&gt;systemi:n</title>
<path fill="none" stroke="black" d="M373.62,-109.08C381.15,-115.75 390.53,-122.52 400.49,-126 421.76,-133.43 430.68,-128.09 449.41,-126.44"/>
<polygon fill="black" stroke="black" points="449.65,-129.93 459.49,-126 449.34,-122.94 449.65,-129.93"/>
<text text-anchor="middle" x="420.99" y="-132.8" font-family="Times,serif" font-size="14.00">o(t){n}</text>
</g>
<!-- DS&#45;&gt;systemi -->
<g id="edge4" class="edge">
<title>DS&#45;&gt;systemi:i</title>
<path fill="none" stroke="black" d="M382.64,-95.74C400.72,-98.66 425.67,-102 449.17,-102.81"/>
<polygon fill="black" stroke="black" points="449.43,-106.32 459.49,-103 449.55,-99.32 449.43,-106.32"/>
<text text-anchor="middle" x="420.99" y="-105.8" font-family="Times,serif" font-size="14.00">o(t){i}</text>
</g>
<!-- DS&#45;&gt;systemi -->
<g id="edge5" class="edge">
<title>DS&#45;&gt;systemi:2</title>
<path fill="none" stroke="black" d="M382.78,-82.61C388.55,-81.11 394.68,-79.78 400.49,-79 422.82,-76.01 430.98,-78.16 449.47,-78.82"/>
<polygon fill="black" stroke="black" points="449.43,-82.32 459.49,-79 449.55,-75.32 449.43,-82.32"/>
<text text-anchor="middle" x="420.99" y="-82.8" font-family="Times,serif" font-size="14.00">o(t){2}</text>
</g>
<!-- DS&#45;&gt;systemi -->
<g id="edge6" class="edge">
<title>DS&#45;&gt;systemi:1</title>
<path fill="none" stroke="black" d="M375.56,-72.71C382.8,-66.9 391.48,-61.17 400.49,-58 421.75,-50.51 430.66,-54.42 449.4,-55.66"/>
<polygon fill="black" stroke="black" points="449.38,-59.16 459.49,-56 449.61,-52.17 449.38,-59.16"/>
<text text-anchor="middle" x="420.99" y="-61.8" font-family="Times,serif" font-size="14.00">o(t){1}</text>
</g>
<!-- outside -->
<g id="node5" class="node">
<title>outside</title>
<ellipse fill="none" stroke="black" cx="599.53" cy="-91" rx="37.09" ry="18"/>
<text text-anchor="middle" x="599.53" y="-87.3" font-family="Times,serif" font-size="14.00">outside</text>
</g>
<!-- systemi&#45;&gt;outside -->
<g id="edge8" class="edge">
<title>systemi:n&#45;&gt;outside</title>
<path fill="none" stroke="black" stroke-dasharray="5,2" d="M526.49,-126C542.04,-126 557.76,-119.32 570.52,-111.79"/>
<polygon fill="black" stroke="black" points="572.69,-114.57 579.25,-106.25 568.94,-108.66 572.69,-114.57"/>
</g>
<!-- systemi&#45;&gt;outside -->
<g id="edge9" class="edge">
<title>systemi:i&#45;&gt;outside</title>
<path fill="none" stroke="black" stroke-dasharray="5,2" d="M526.49,-103C535.99,-103 546.09,-101.97 555.64,-100.52"/>
<polygon fill="black" stroke="black" points="556.46,-103.93 565.73,-98.8 555.28,-97.03 556.46,-103.93"/>
</g>
<!-- systemi&#45;&gt;outside -->
<g id="edge10" class="edge">
<title>systemi:2&#45;&gt;outside</title>
<path fill="none" stroke="black" stroke-dasharray="5,2" d="M526.49,-79C535.99,-79 546.09,-80.03 555.64,-81.48"/>
<polygon fill="black" stroke="black" points="555.28,-84.97 565.73,-83.2 556.46,-78.07 555.28,-84.97"/>
</g>
<!-- systemi&#45;&gt;outside -->
<g id="edge11" class="edge">
<title>systemi:1&#45;&gt;outside</title>
<path fill="none" stroke="black" stroke-dasharray="5,2" d="M526.49,-56C542.04,-56 557.76,-62.68 570.52,-70.21"/>
<polygon fill="black" stroke="black" points="568.94,-73.34 579.25,-75.75 572.69,-67.43 568.94,-73.34"/>
</g>
<!-- outside interfaces -->
<g id="node4" class="node">
<title>outside interfaces</title>
<ellipse fill="none" stroke="black" cx="74.74" cy="-91" rx="74.99" ry="18"/>
<text text-anchor="middle" x="74.74" y="-87.3" font-family="Times,serif" font-size="14.00">outside interfaces</text>
</g>
<!-- outside interfaces&#45;&gt;DM -->
<g id="edge7" class="edge">
<title>outside interfaces&#45;&gt;DM</title>
<path fill="none" stroke="black" stroke-dasharray="5,2" d="M149.91,-91C164.91,-91 180.05,-91 193.03,-91"/>
<polygon fill="black" stroke="black" points="193.38,-94.5 203.38,-91 193.38,-87.5 193.38,-94.5"/>
<text text-anchor="middle" x="176.49" y="-94.8" font-family="Times,serif" font-size="14.00">i(t)</text>
</g>
</g>
</svg>
