<?xml version="1.0" encoding="UTF-8" standalone="no"?>
<!DOCTYPE svg PUBLIC "-//W3C//DTD SVG 1.1//EN"
 "http://www.w3.org/Graphics/SVG/1.1/DTD/svg11.dtd">
<!-- Generated by graphviz version 2.47.3 (20210619.1520)
 -->
<!-- Pages: 1 -->
<svg width="781pt" height="420pt"
 viewBox="0.00 0.00 781.14 419.67" xmlns="http://www.w3.org/2000/svg" xmlns:xlink="http://www.w3.org/1999/xlink">
<g id="graph0" class="graph" transform="scale(1 1) rotate(0) translate(4 415.67)">
<polygon fill="white" stroke="transparent" points="-4,4 -4,-415.67 777.14,-415.67 777.14,4 -4,4"/>
<text text-anchor="middle" x="386.57" y="-7.8" font-family="Times,serif" font-size="14.00">whole system</text>
<g id="clust1" class="cluster">
<title>cluster_inner</title>
<polygon fill="none" stroke="black" points="173.59,-112.67 173.59,-403.67 672.35,-403.67 672.35,-112.67 173.59,-112.67"/>
<text text-anchor="middle" x="422.97" y="-388.47" font-family="Times,serif" font-size="14.00">reflection system</text>
</g>
<!-- direct memory -->
<g id="node1" class="node">
<title>direct memory</title>
<ellipse fill="none" stroke="blue" cx="251.13" cy="-246.67" rx="63.89" ry="18"/>
<text text-anchor="middle" x="251.13" y="-242.97" font-family="Times,serif" font-size="14.00">direct memory</text>
</g>
<!-- direct memory&#45;&gt;direct memory -->
<g id="edge2" class="edge">
<title>direct memory:e&#45;&gt;direct memory:w</title>
<path fill="none" stroke="black" stroke-dasharray="5,2" d="M315.13,-246.67C358.13,-258.67 358.13,-282.67 251.13,-282.67 152.91,-282.67 144.85,-262.44 177.45,-249.84"/>
<polygon fill="black" stroke="black" points="178.72,-253.11 187.13,-246.67 176.54,-246.46 178.72,-253.11"/>
</g>
<!-- decision system -->
<g id="node2" class="node">
<title>decision system</title>
<ellipse fill="none" stroke="blue" cx="424.27" cy="-246.67" rx="67.69" ry="18"/>
<text text-anchor="middle" x="424.27" y="-242.97" font-family="Times,serif" font-size="14.00">decision system</text>
</g>
<!-- direct memory&#45;&gt;decision system -->
<g id="edge1" class="edge">
<title>direct memory&#45;&gt;decision system</title>
<path fill="none" stroke="blue" d="M314.88,-246.67C325.15,-246.67 335.89,-246.67 346.45,-246.67"/>
<polygon fill="blue" stroke="blue" points="346.49,-250.17 356.49,-246.67 346.49,-243.17 346.49,-250.17"/>
</g>
<!-- decision system&#45;&gt;direct memory -->
<g id="edge15" class="edge">
<title>decision system:se&#45;&gt;direct memory:sw</title>
<path fill="none" stroke="blue" d="M443.27,-228.67C472.28,-199.65 261.46,-196.25 234.27,-218.47"/>
<polygon fill="blue" stroke="blue" points="230.76,-218.62 234.13,-228.67 237.76,-218.71 230.76,-218.62"/>
</g>
<!-- system 1 -->
<g id="node3" class="node">
<title>system 1</title>
<ellipse fill="none" stroke="black" stroke-dasharray="5,2" cx="596.11" cy="-192.67" rx="42.49" ry="18"/>
<text text-anchor="middle" x="596.11" y="-188.97" font-family="Times,serif" font-size="14.00">system 1</text>
</g>
<!-- decision system&#45;&gt;system 1 -->
<g id="edge3" class="edge">
<title>decision system&#45;&gt;system 1</title>
<path fill="none" stroke="black" stroke-dasharray="5,2" d="M468.57,-232.9C494.16,-224.76 526.46,-214.49 552.02,-206.37"/>
<polygon fill="black" stroke="black" points="553.34,-209.62 561.81,-203.25 551.22,-202.95 553.34,-209.62"/>
</g>
<!-- system 2 -->
<g id="node4" class="node">
<title>system 2</title>
<ellipse fill="none" stroke="black" stroke-dasharray="5,2" cx="596.11" cy="-246.67" rx="42.49" ry="18"/>
<text text-anchor="middle" x="596.11" y="-242.97" font-family="Times,serif" font-size="14.00">system 2</text>
</g>
<!-- decision system&#45;&gt;system 2 -->
<g id="edge4" class="edge">
<title>decision system&#45;&gt;system 2</title>
<path fill="none" stroke="black" stroke-dasharray="5,2" d="M491.91,-246.67C508.98,-246.67 527.09,-246.67 543.3,-246.67"/>
<polygon fill="black" stroke="black" points="543.64,-250.17 553.64,-246.67 543.64,-243.17 543.64,-250.17"/>
</g>
<!-- [...] -->
<g id="node5" class="node">
<title>[...]</title>
<ellipse fill="none" stroke="black" stroke-dasharray="5,2" cx="596.11" cy="-300.67" rx="27" ry="18"/>
<text text-anchor="middle" x="596.11" y="-296.97" font-family="Times,serif" font-size="14.00">[...]</text>
</g>
<!-- decision system&#45;&gt;[...] -->
<g id="edge5" class="edge">
<title>decision system&#45;&gt;[...]</title>
<path fill="none" stroke="black" stroke-dasharray="5,2" d="M468.57,-260.43C497.5,-269.63 534.99,-281.55 561.64,-290.03"/>
<polygon fill="black" stroke="black" points="560.69,-293.4 571.28,-293.09 562.81,-286.72 560.69,-293.4"/>
</g>
<!-- system n -->
<g id="node6" class="node">
<title>system n</title>
<ellipse fill="none" stroke="black" stroke-dasharray="5,2" cx="596.11" cy="-354.67" rx="42.49" ry="18"/>
<text text-anchor="middle" x="596.11" y="-350.97" font-family="Times,serif" font-size="14.00">system n</text>
</g>
<!-- decision system&#45;&gt;system n -->
<g id="edge6" class="edge">
<title>decision system&#45;&gt;system n</title>
<path fill="none" stroke="black" stroke-dasharray="5,2" d="M443.74,-263.95C463.42,-281.7 496.05,-309.24 527.86,-327.67 535.69,-332.2 544.43,-336.32 552.95,-339.9"/>
<polygon fill="black" stroke="black" points="551.83,-343.22 562.41,-343.7 554.44,-336.72 551.83,-343.22"/>
</g>
<!-- memory system -->
<g id="node7" class="node">
<title>memory system</title>
<ellipse fill="none" stroke="black" stroke-dasharray="5,2" cx="596.11" cy="-138.67" rx="68.49" ry="18"/>
<text text-anchor="middle" x="596.11" y="-134.97" font-family="Times,serif" font-size="14.00">memory system</text>
</g>
<!-- decision system&#45;&gt;memory system -->
<g id="edge12" class="edge">
<title>decision system&#45;&gt;memory system</title>
<path fill="none" stroke="black" stroke-dasharray="5,2" d="M443.74,-229.38C463.42,-211.64 496.05,-184.09 527.86,-165.67 533.22,-162.56 539,-159.65 544.85,-156.98"/>
<polygon fill="black" stroke="black" points="546.27,-160.18 554.04,-152.98 543.47,-153.76 546.27,-160.18"/>
</g>
<!-- outside -->
<g id="node10" class="node">
<title>outside</title>
<ellipse fill="none" stroke="black" stroke-dasharray="5,2" cx="736.75" cy="-273.67" rx="36.29" ry="18"/>
<text text-anchor="middle" x="736.75" y="-269.97" font-family="Times,serif" font-size="14.00">outside</text>
</g>
<!-- system 1&#45;&gt;outside -->
<g id="edge8" class="edge">
<title>system 1&#45;&gt;outside</title>
<path fill="none" stroke="black" stroke-dasharray="5,2" d="M631.98,-202.27C645.1,-206.62 659.86,-212.43 672.35,-219.67 686.89,-228.09 701.29,-239.99 712.68,-250.47"/>
<polygon fill="black" stroke="black" points="710.38,-253.12 720.05,-257.45 715.19,-248.03 710.38,-253.12"/>
</g>
<!-- system 2&#45;&gt;outside -->
<g id="edge9" class="edge">
<title>system 2&#45;&gt;outside</title>
<path fill="none" stroke="black" stroke-dasharray="5,2" d="M634.99,-254.04C652.85,-257.52 674.24,-261.69 692.71,-265.28"/>
<polygon fill="black" stroke="black" points="692.14,-268.74 702.63,-267.22 693.48,-261.87 692.14,-268.74"/>
</g>
<!-- [...]&#45;&gt;outside -->
<g id="edge10" class="edge">
<title>[...]&#45;&gt;outside</title>
<path fill="none" stroke="black" stroke-dasharray="5,2" d="M622.21,-295.78C641.86,-291.95 669.63,-286.54 692.79,-282.03"/>
<polygon fill="black" stroke="black" points="693.58,-285.44 702.73,-280.1 692.25,-278.57 693.58,-285.44"/>
</g>
<!-- system n&#45;&gt;outside -->
<g id="edge11" class="edge">
<title>system n&#45;&gt;outside</title>
<path fill="none" stroke="black" stroke-dasharray="5,2" d="M631.98,-345.06C645.1,-340.71 659.86,-334.9 672.35,-327.67 686.89,-319.25 701.29,-307.35 712.68,-296.86"/>
<polygon fill="black" stroke="black" points="715.19,-299.3 720.05,-289.88 710.38,-294.21 715.19,-299.3"/>
</g>
<!-- general memory -->
<g id="node8" class="node">
<title>general memory</title>
<ellipse fill="none" stroke="black" stroke-dasharray="5,2" cx="251.13" cy="-166.67" rx="69.59" ry="18"/>
<text text-anchor="middle" x="251.13" y="-162.97" font-family="Times,serif" font-size="14.00">general memory</text>
</g>
<!-- memory system&#45;&gt;general memory -->
<g id="edge13" class="edge">
<title>memory system&#45;&gt;general memory</title>
<path fill="none" stroke="black" stroke-dasharray="5,2" d="M530.77,-143.92C473.27,-148.61 388.97,-155.49 328.16,-160.46"/>
<polygon fill="black" stroke="black" points="327.54,-157 317.85,-161.3 328.11,-163.97 327.54,-157"/>
</g>
<!-- general memory&#45;&gt;direct memory -->
<g id="edge14" class="edge">
<title>general memory&#45;&gt;direct memory</title>
<path fill="none" stroke="black" stroke-dasharray="5,2" d="M251.13,-184.79C251.13,-195.89 251.13,-207 251.13,-218.1"/>
<polygon fill="black" stroke="black" points="247.63,-218.3 251.13,-228.3 254.63,-218.3 247.63,-218.3"/>
</g>
<!-- outside interfaces -->
<g id="node9" class="node">
<title>outside interfaces</title>
<ellipse fill="none" stroke="black" stroke-dasharray="5,2" cx="72.79" cy="-246.67" rx="72.59" ry="18"/>
<text text-anchor="middle" x="72.79" y="-242.97" font-family="Times,serif" font-size="14.00">outside interfaces</text>
</g>
<!-- outside interfaces&#45;&gt;direct memory -->
<g id="edge7" class="edge">
<title>outside interfaces&#45;&gt;direct memory</title>
<path fill="none" stroke="black" stroke-dasharray="5,2" d="M145.77,-246.67C156.13,-246.67 166.79,-246.67 177.17,-246.67"/>
<polygon fill="black" stroke="black" points="177.43,-250.17 187.43,-246.67 177.43,-243.17 177.43,-250.17"/>
</g>
<!-- outside&#45;&gt;outside interfaces -->
<g id="edge16" class="edge">
<title>outside&#45;&gt;outside interfaces</title>
<path fill="none" stroke="black" stroke-dasharray="5,2" d="M735.05,-255.53C732.58,-220.15 721.55,-142.47 672.35,-108.67 489.64,16.86 370.99,-7.81 173.59,-108.67 128.49,-131.71 99.07,-185.69 84.53,-218.9"/>
<polygon fill="black" stroke="black" points="81.15,-217.91 80.5,-228.48 87.6,-220.62 81.15,-217.91"/>
</g>
</g>
</svg>
