<?xml version="1.0" encoding="UTF-8" standalone="no"?>
<!DOCTYPE svg PUBLIC "-//W3C//DTD SVG 1.1//EN"
 "http://www.w3.org/Graphics/SVG/1.1/DTD/svg11.dtd">
<!-- Generated by graphviz version 2.47.3 (20210619.1520)
 -->
<!-- Pages: 1 -->
<svg width="316pt" height="101pt"
 viewBox="0.00 0.00 315.79 101.00" xmlns="http://www.w3.org/2000/svg" xmlns:xlink="http://www.w3.org/1999/xlink">
<g id="graph0" class="graph" transform="scale(1 1) rotate(0) translate(4 97)">
<polygon fill="white" stroke="transparent" points="-4,4 -4,-97 311.79,-97 311.79,4 -4,4"/>
<text text-anchor="start" x="18.4" y="-8.8" font-family="Times,serif" text-decoration="underline" font-size="14.00">Oversimplfied server to game engine architecture</text>
<!-- server -->
<g id="node1" class="node">
<title>server</title>
<polygon fill="none" stroke="black" points="307.79,-83 257.79,-83 257.79,-33 307.79,-33 307.79,-83"/>
<text text-anchor="middle" x="282.79" y="-54.3" font-family="Times,serif" font-size="14.00">server</text>
</g>
<!-- struct_endpoints -->
<g id="node2" class="node">
<title>struct_endpoints</title>
<polygon fill="none" stroke="black" points="147.79,-23.5 147.79,-92.5 221.79,-92.5 221.79,-23.5 147.79,-23.5"/>
<text text-anchor="middle" x="184.79" y="-77.3" font-family="Times,serif" font-size="14.00">endpoint 1</text>
<polyline fill="none" stroke="black" points="147.79,-69.5 221.79,-69.5 "/>
<text text-anchor="middle" x="184.79" y="-54.3" font-family="Times,serif" font-size="14.00">...</text>
<polyline fill="none" stroke="black" points="147.79,-46.5 221.79,-46.5 "/>
<text text-anchor="middle" x="184.79" y="-31.3" font-family="Times,serif" font-size="14.00">endpoint n</text>
</g>
<!-- struct_endpoints&#45;&gt;server -->
<g id="edge1" class="edge">
<title>struct_endpoints:port1&#45;&gt;server</title>
<path fill="none" stroke="black" d="M232.01,-80.11C237.53,-79.18 243.01,-77.61 248.2,-75.72"/>
<polygon fill="black" stroke="black" points="231.45,-76.64 221.79,-81 232.06,-83.62 231.45,-76.64"/>
<polygon fill="black" stroke="black" points="249.86,-78.83 257.77,-71.78 247.19,-72.36 249.86,-78.83"/>
</g>
<!-- struct_endpoints&#45;&gt;server -->
<g id="edge2" class="edge">
<title>struct_endpoints:port2&#45;&gt;server</title>
<path fill="none" stroke="black" d="M231.95,-58C237.17,-58 242.45,-58 247.52,-58"/>
<polygon fill="black" stroke="black" points="231.79,-54.5 221.79,-58 231.79,-61.5 231.79,-54.5"/>
<polygon fill="black" stroke="black" points="247.56,-61.5 257.56,-58 247.56,-54.5 247.56,-61.5"/>
</g>
<!-- struct_endpoints&#45;&gt;server -->
<g id="edge3" class="edge">
<title>struct_endpoints:port3&#45;&gt;server</title>
<path fill="none" stroke="black" d="M232.01,-35.89C237.53,-36.82 243.01,-38.39 248.2,-40.28"/>
<polygon fill="black" stroke="black" points="232.06,-32.38 221.79,-35 231.45,-39.36 232.06,-32.38"/>
<polygon fill="black" stroke="black" points="247.19,-43.64 257.77,-44.22 249.86,-37.17 247.19,-43.64"/>
</g>
<!-- game engine -->
<g id="node3" class="node">
<title>game engine</title>
<ellipse fill="none" stroke="black" cx="55.9" cy="-58" rx="55.79" ry="18"/>
<text text-anchor="middle" x="55.9" y="-54.3" font-family="Times,serif" font-size="14.00">game engine</text>
</g>
<!-- game engine&#45;&gt;struct_endpoints -->
<g id="edge4" class="edge">
<title>game engine&#45;&gt;struct_endpoints:port1</title>
<path fill="none" stroke="black" d="M103.07,-74.36C114.03,-77.25 125.93,-79.64 137.61,-80.58"/>
<polygon fill="black" stroke="black" points="103.65,-70.88 93.08,-71.51 101.74,-77.62 103.65,-70.88"/>
<polygon fill="black" stroke="black" points="137.65,-84.08 147.79,-81 137.94,-77.09 137.65,-84.08"/>
</g>
<!-- game engine&#45;&gt;struct_endpoints -->
<g id="edge5" class="edge">
<title>game engine&#45;&gt;struct_endpoints:port2</title>
<path fill="none" stroke="black" d="M122.2,-58C127.31,-58 132.45,-58 137.52,-58"/>
<polygon fill="black" stroke="black" points="122.17,-54.5 112.17,-58 122.17,-61.5 122.17,-54.5"/>
<polygon fill="black" stroke="black" points="137.79,-61.5 147.79,-58 137.79,-54.5 137.79,-61.5"/>
</g>
<!-- game engine&#45;&gt;struct_endpoints -->
<g id="edge6" class="edge">
<title>game engine&#45;&gt;struct_endpoints:port3</title>
<path fill="none" stroke="black" d="M103.07,-41.64C114.03,-38.75 125.93,-36.36 137.61,-35.42"/>
<polygon fill="black" stroke="black" points="101.74,-38.38 93.08,-44.49 103.65,-45.12 101.74,-38.38"/>
<polygon fill="black" stroke="black" points="137.94,-38.91 147.79,-35 137.65,-31.92 137.94,-38.91"/>
</g>
</g>
</svg>
