<?xml version="1.0" encoding="UTF-8" standalone="no"?>
<!DOCTYPE svg PUBLIC "-//W3C//DTD SVG 1.1//EN"
 "http://www.w3.org/Graphics/SVG/1.1/DTD/svg11.dtd">
<!-- Generated by graphviz version 2.47.3 (20210619.1520)
 -->
<!-- Pages: 1 -->
<svg width="798pt" height="528pt"
 viewBox="0.00 0.00 798.44 527.56" xmlns="http://www.w3.org/2000/svg" xmlns:xlink="http://www.w3.org/1999/xlink">
<g id="graph0" class="graph" transform="scale(1 1) rotate(0) translate(4 523.56)">
<polygon fill="white" stroke="transparent" points="-4,4 -4,-523.56 794.44,-523.56 794.44,4 -4,4"/>
<text text-anchor="middle" x="395.22" y="-7.8" font-family="Times,serif" font-size="14.00">whole system</text>
<g id="clust1" class="cluster">
<title>cluster_inner</title>
<polygon fill="none" stroke="black" points="190.89,-112.56 190.89,-403.56 689.65,-403.56 689.65,-112.56 190.89,-112.56"/>
<text text-anchor="middle" x="440.27" y="-388.36" font-family="Times,serif" font-size="14.00">structure of living abstractions</text>
</g>
<g id="clust6" class="cluster">
<title>cluster_caption</title>
<polygon fill="none" stroke="black" stroke-dasharray="5,2" points="8,-274.56 8,-511.56 170.89,-511.56 170.89,-274.56 8,-274.56"/>
<text text-anchor="middle" x="89.44" y="-496.36" font-family="Times,serif" font-size="14.00">caption</text>
</g>
<!-- direct memory -->
<g id="node1" class="node">
<title>direct memory</title>
<ellipse fill="none" stroke="black" cx="268.43" cy="-246.56" rx="63.89" ry="18"/>
<text text-anchor="middle" x="268.43" y="-242.86" font-family="Times,serif" font-size="14.00">direct memory</text>
</g>
<!-- direct memory&#45;&gt;direct memory -->
<g id="edge2" class="edge">
<title>direct memory:e&#45;&gt;direct memory:w</title>
<path fill="none" stroke="red" d="M332.43,-246.56C375.43,-258.56 375.43,-282.56 268.43,-282.56 170.21,-282.56 162.15,-262.34 194.75,-249.74"/>
<polygon fill="red" stroke="red" points="196.02,-253 204.43,-246.56 193.84,-246.35 196.02,-253"/>
</g>
<!-- decision system -->
<g id="node2" class="node">
<title>decision system</title>
<ellipse fill="none" stroke="black" cx="441.57" cy="-246.56" rx="67.69" ry="18"/>
<text text-anchor="middle" x="441.57" y="-242.86" font-family="Times,serif" font-size="14.00">decision system</text>
</g>
<!-- direct memory&#45;&gt;decision system -->
<g id="edge1" class="edge">
<title>direct memory&#45;&gt;decision system</title>
<path fill="none" stroke="red" d="M332.18,-246.56C342.45,-246.56 353.19,-246.56 363.75,-246.56"/>
<polygon fill="red" stroke="red" points="363.79,-250.06 373.79,-246.56 363.79,-243.06 363.79,-250.06"/>
</g>
<!-- decision system&#45;&gt;direct memory -->
<g id="edge15" class="edge">
<title>decision system:se&#45;&gt;direct memory:sw</title>
<path fill="none" stroke="blue" d="M460.57,-228.56C489.58,-199.55 278.76,-196.15 251.56,-218.36"/>
<polygon fill="blue" stroke="blue" points="248.06,-218.52 251.43,-228.56 255.06,-218.61 248.06,-218.52"/>
</g>
<!-- system 1 -->
<g id="node3" class="node">
<title>system 1</title>
<ellipse fill="none" stroke="black" cx="613.41" cy="-192.56" rx="42.49" ry="18"/>
<text text-anchor="middle" x="613.41" y="-188.86" font-family="Times,serif" font-size="14.00">system 1</text>
</g>
<!-- decision system&#45;&gt;system 1 -->
<g id="edge3" class="edge">
<title>decision system&#45;&gt;system 1</title>
<path fill="none" stroke="red" d="M485.87,-232.79C511.46,-224.66 543.76,-214.39 569.32,-206.26"/>
<polygon fill="red" stroke="red" points="570.64,-209.51 579.11,-203.15 568.52,-202.84 570.64,-209.51"/>
</g>
<!-- system 2 -->
<g id="node4" class="node">
<title>system 2</title>
<ellipse fill="none" stroke="black" cx="613.41" cy="-246.56" rx="42.49" ry="18"/>
<text text-anchor="middle" x="613.41" y="-242.86" font-family="Times,serif" font-size="14.00">system 2</text>
</g>
<!-- decision system&#45;&gt;system 2 -->
<g id="edge4" class="edge">
<title>decision system&#45;&gt;system 2</title>
<path fill="none" stroke="red" d="M509.21,-246.56C526.28,-246.56 544.39,-246.56 560.6,-246.56"/>
<polygon fill="red" stroke="red" points="560.94,-250.06 570.94,-246.56 560.94,-243.06 560.94,-250.06"/>
</g>
<!-- [...] -->
<g id="node5" class="node">
<title>[...]</title>
<ellipse fill="none" stroke="black" cx="613.41" cy="-300.56" rx="27" ry="18"/>
<text text-anchor="middle" x="613.41" y="-296.86" font-family="Times,serif" font-size="14.00">[...]</text>
</g>
<!-- decision system&#45;&gt;[...] -->
<g id="edge5" class="edge">
<title>decision system&#45;&gt;[...]</title>
<path fill="none" stroke="red" d="M485.87,-260.33C514.8,-269.53 552.29,-281.45 578.94,-289.92"/>
<polygon fill="red" stroke="red" points="577.99,-293.29 588.58,-292.99 580.11,-286.62 577.99,-293.29"/>
</g>
<!-- system n -->
<g id="node6" class="node">
<title>system n</title>
<ellipse fill="none" stroke="black" cx="613.41" cy="-354.56" rx="42.49" ry="18"/>
<text text-anchor="middle" x="613.41" y="-350.86" font-family="Times,serif" font-size="14.00">system n</text>
</g>
<!-- decision system&#45;&gt;system n -->
<g id="edge6" class="edge">
<title>decision system&#45;&gt;system n</title>
<path fill="none" stroke="red" d="M461.04,-263.85C480.72,-281.59 513.35,-309.13 545.16,-327.56 552.99,-332.1 561.73,-336.22 570.25,-339.79"/>
<polygon fill="red" stroke="red" points="569.13,-343.11 579.71,-343.6 571.74,-336.62 569.13,-343.11"/>
</g>
<!-- memory system -->
<g id="node7" class="node">
<title>memory system</title>
<ellipse fill="none" stroke="black" cx="613.41" cy="-138.56" rx="68.49" ry="18"/>
<text text-anchor="middle" x="613.41" y="-134.86" font-family="Times,serif" font-size="14.00">memory system</text>
</g>
<!-- decision system&#45;&gt;memory system -->
<g id="edge12" class="edge">
<title>decision system&#45;&gt;memory system</title>
<path fill="none" stroke="green" d="M461.04,-229.27C480.72,-211.53 513.35,-183.99 545.16,-165.56 550.52,-162.46 556.3,-159.55 562.15,-156.88"/>
<polygon fill="green" stroke="green" points="563.57,-160.08 571.34,-152.87 560.77,-153.66 563.57,-160.08"/>
</g>
<!-- outside -->
<g id="node10" class="node">
<title>outside</title>
<ellipse fill="none" stroke="black" cx="754.05" cy="-273.56" rx="36.29" ry="18"/>
<text text-anchor="middle" x="754.05" y="-269.86" font-family="Times,serif" font-size="14.00">outside</text>
</g>
<!-- system 1&#45;&gt;outside -->
<g id="edge8" class="edge">
<title>system 1&#45;&gt;outside</title>
<path fill="none" stroke="black" d="M649.28,-202.16C662.4,-206.51 677.16,-212.33 689.65,-219.56 704.19,-227.98 718.59,-239.88 729.98,-250.37"/>
<polygon fill="black" stroke="black" points="727.68,-253.01 737.35,-257.34 732.49,-247.93 727.68,-253.01"/>
</g>
<!-- system 2&#45;&gt;outside -->
<g id="edge9" class="edge">
<title>system 2&#45;&gt;outside</title>
<path fill="none" stroke="black" d="M652.29,-253.94C670.15,-257.42 691.54,-261.58 710.01,-265.18"/>
<polygon fill="black" stroke="black" points="709.44,-268.63 719.93,-267.11 710.78,-261.76 709.44,-268.63"/>
</g>
<!-- [...]&#45;&gt;outside -->
<g id="edge10" class="edge">
<title>[...]&#45;&gt;outside</title>
<path fill="none" stroke="black" d="M639.51,-295.67C659.16,-291.85 686.93,-286.44 710.09,-281.93"/>
<polygon fill="black" stroke="black" points="710.88,-285.34 720.03,-279.99 709.55,-278.47 710.88,-285.34"/>
</g>
<!-- system n&#45;&gt;outside -->
<g id="edge11" class="edge">
<title>system n&#45;&gt;outside</title>
<path fill="none" stroke="black" d="M649.28,-344.96C662.4,-340.61 677.16,-334.8 689.65,-327.56 704.19,-319.14 718.59,-307.24 729.98,-296.75"/>
<polygon fill="black" stroke="black" points="732.49,-299.19 737.35,-289.78 727.68,-294.11 732.49,-299.19"/>
</g>
<!-- general memory -->
<g id="node8" class="node">
<title>general memory</title>
<ellipse fill="none" stroke="black" cx="268.43" cy="-166.56" rx="69.59" ry="18"/>
<text text-anchor="middle" x="268.43" y="-162.86" font-family="Times,serif" font-size="14.00">general memory</text>
</g>
<!-- memory system&#45;&gt;general memory -->
<g id="edge13" class="edge">
<title>memory system&#45;&gt;general memory</title>
<path fill="none" stroke="green" d="M548.07,-143.81C490.57,-148.51 406.27,-155.39 345.46,-160.35"/>
<polygon fill="green" stroke="green" points="344.84,-156.89 335.15,-161.2 345.41,-163.87 344.84,-156.89"/>
</g>
<!-- general memory&#45;&gt;direct memory -->
<g id="edge14" class="edge">
<title>general memory&#45;&gt;direct memory</title>
<path fill="none" stroke="green" d="M268.43,-184.69C268.43,-195.79 268.43,-206.89 268.43,-218"/>
<polygon fill="green" stroke="green" points="264.93,-218.19 268.43,-228.19 271.93,-218.19 264.93,-218.19"/>
</g>
<!-- outside interfaces -->
<g id="node9" class="node">
<title>outside interfaces</title>
<ellipse fill="none" stroke="black" cx="89.44" cy="-246.56" rx="72.59" ry="18"/>
<text text-anchor="middle" x="89.44" y="-242.86" font-family="Times,serif" font-size="14.00">outside interfaces</text>
</g>
<!-- outside interfaces&#45;&gt;direct memory -->
<g id="edge7" class="edge">
<title>outside interfaces&#45;&gt;direct memory</title>
<path fill="none" stroke="black" d="M162.43,-246.56C173.02,-246.56 183.94,-246.56 194.54,-246.56"/>
<polygon fill="black" stroke="black" points="194.6,-250.06 204.6,-246.56 194.6,-243.06 194.6,-250.06"/>
</g>
<!-- outside&#45;&gt;outside interfaces -->
<g id="edge16" class="edge">
<title>outside&#45;&gt;outside interfaces</title>
<path fill="none" stroke="black" d="M752.35,-255.42C749.88,-220.05 738.85,-142.36 689.65,-108.56 506.94,16.97 388.44,-8.01 190.89,-108.56 145.65,-131.58 115.99,-185.57 101.3,-218.79"/>
<polygon fill="black" stroke="black" points="97.92,-217.8 97.23,-228.37 104.36,-220.54 97.92,-217.8"/>
</g>
<!-- primary system -->
<g id="node11" class="node">
<title>primary system</title>
<ellipse fill="none" stroke="black" cx="89.44" cy="-444.56" rx="66.09" ry="18"/>
<text text-anchor="middle" x="89.44" y="-440.86" font-family="Times,serif" font-size="14.00">primary system</text>
</g>
<!-- primary system&#45;&gt;primary system -->
<g id="edge17" class="edge">
<title>primary system&#45;&gt;primary system</title>
<path fill="none" stroke="red" d="M58.42,-460.85C50.94,-470.95 61.28,-480.56 89.44,-480.56 107.48,-480.56 118.21,-476.62 121.62,-471.13"/>
<polygon fill="red" stroke="red" points="125.06,-470.4 120.46,-460.85 118.11,-471.18 125.06,-470.4"/>
</g>
<!-- intelligent system -->
<g id="node12" class="node">
<title>intelligent system</title>
<ellipse fill="none" stroke="black" cx="89.44" cy="-372.56" rx="73.39" ry="18"/>
<text text-anchor="middle" x="89.44" y="-368.86" font-family="Times,serif" font-size="14.00">intelligent system</text>
</g>
<!-- intelligent system&#45;&gt;intelligent system -->
<g id="edge18" class="edge">
<title>intelligent system&#45;&gt;intelligent system</title>
<path fill="none" stroke="green" d="M58.15,-389.22C51.2,-399.19 61.63,-408.56 89.44,-408.56 107.26,-408.56 117.94,-404.71 121.49,-399.33"/>
<polygon fill="green" stroke="green" points="124.97,-398.93 120.73,-389.22 117.99,-399.46 124.97,-398.93"/>
</g>
<!-- reflection system -->
<g id="node13" class="node">
<title>reflection system</title>
<ellipse fill="none" stroke="black" cx="89.44" cy="-300.56" rx="71.49" ry="18"/>
<text text-anchor="middle" x="89.44" y="-296.86" font-family="Times,serif" font-size="14.00">reflection system</text>
</g>
<!-- reflection system&#45;&gt;reflection system -->
<g id="edge19" class="edge">
<title>reflection system&#45;&gt;reflection system</title>
<path fill="none" stroke="blue" d="M58.42,-316.85C50.94,-326.95 61.28,-336.56 89.44,-336.56 107.48,-336.56 118.21,-332.62 121.62,-327.13"/>
<polygon fill="blue" stroke="blue" points="125.06,-326.4 120.46,-316.85 118.11,-327.18 125.06,-326.4"/>
</g>
</g>
</svg>
