<?xml version="1.0" encoding="UTF-8" standalone="no"?>
<!DOCTYPE svg PUBLIC "-//W3C//DTD SVG 1.1//EN"
 "http://www.w3.org/Graphics/SVG/1.1/DTD/svg11.dtd">
<!-- Generated by graphviz version 2.47.3 (20210619.1520)
 -->
<!-- Pages: 1 -->
<svg width="532pt" height="88pt"
 viewBox="0.00 0.00 532.36 88.34" xmlns="http://www.w3.org/2000/svg" xmlns:xlink="http://www.w3.org/1999/xlink">
<g id="graph0" class="graph" transform="scale(1 1) rotate(0) translate(4 84.34)">
<polygon fill="white" stroke="transparent" points="-4,4 -4,-84.34 528.36,-84.34 528.36,4 -4,4"/>
<text text-anchor="middle" x="262.18" y="-7.8" font-family="Times,serif" font-size="14.00">environment system</text>
<!-- outside -->
<g id="node1" class="node">
<title>outside</title>
<ellipse fill="none" stroke="black" cx="36.4" cy="-62.34" rx="36.29" ry="18"/>
<text text-anchor="middle" x="36.4" y="-58.64" font-family="Times,serif" font-size="14.00">outside</text>
</g>
<!-- structure of living abstractions -->
<g id="node2" class="node">
<title>structure of living abstractions</title>
<ellipse fill="none" stroke="black" cx="227.08" cy="-62.34" rx="118.08" ry="18"/>
<text text-anchor="middle" x="227.08" y="-58.64" font-family="Times,serif" font-size="14.00">structure of living abstractions</text>
</g>
<!-- outside&#45;&gt;structure of living abstractions -->
<g id="edge1" class="edge">
<title>outside&#45;&gt;structure of living abstractions</title>
<path fill="none" stroke="black" d="M72.89,-62.34C80.65,-62.34 89.29,-62.34 98.42,-62.34"/>
<polygon fill="black" stroke="black" points="98.49,-65.84 108.49,-62.34 98.49,-58.84 98.49,-65.84"/>
</g>
<!-- exterior interface -->
<g id="node3" class="node">
<title>exterior interface</title>
<ellipse fill="none" stroke="black" cx="452.87" cy="-62.34" rx="71.49" ry="18"/>
<text text-anchor="middle" x="452.87" y="-58.64" font-family="Times,serif" font-size="14.00">exterior interface</text>
</g>
<!-- structure of living abstractions&#45;&gt;exterior interface -->
<g id="edge2" class="edge">
<title>structure of living abstractions&#45;&gt;exterior interface</title>
<path fill="none" stroke="black" d="M345.55,-62.34C354.17,-62.34 362.76,-62.34 371.09,-62.34"/>
<polygon fill="black" stroke="black" points="371.12,-65.84 381.12,-62.34 371.12,-58.84 371.12,-65.84"/>
</g>
<!-- exterior interface&#45;&gt;outside -->
<g id="edge3" class="edge">
<title>exterior interface&#45;&gt;outside</title>
<path fill="none" stroke="black" d="M407.26,-48.4C388.37,-43.19 366,-37.91 345.37,-35.34 241.04,-22.32 212.23,-16.44 108.79,-35.34 96.69,-37.55 83.98,-41.71 72.7,-46.11"/>
<polygon fill="black" stroke="black" points="71.12,-42.97 63.19,-50 73.77,-49.45 71.12,-42.97"/>
</g>
</g>
</svg>
