<?xml version="1.0" encoding="UTF-8" standalone="no"?>
<!DOCTYPE svg PUBLIC "-//W3C//DTD SVG 1.1//EN"
 "http://www.w3.org/Graphics/SVG/1.1/DTD/svg11.dtd">
<!-- Generated by graphviz version 2.47.3 (20210619.1520)
 -->
<!-- Pages: 1 -->
<svg width="535pt" height="88pt"
 viewBox="0.00 0.00 534.96 88.29" xmlns="http://www.w3.org/2000/svg" xmlns:xlink="http://www.w3.org/1999/xlink">
<g id="graph0" class="graph" transform="scale(1 1) rotate(0) translate(4 84.29)">
<polygon fill="white" stroke="transparent" points="-4,4 -4,-84.29 530.96,-84.29 530.96,4 -4,4"/>
<text text-anchor="middle" x="263.48" y="-7.8" font-family="Times,serif" font-size="14.00">environment system</text>
<!-- outside interfaces -->
<g id="node1" class="node">
<title>outside interfaces</title>
<ellipse fill="none" stroke="black" cx="72.79" cy="-62.29" rx="72.59" ry="18"/>
<text text-anchor="middle" x="72.79" y="-58.59" font-family="Times,serif" font-size="14.00">outside interfaces</text>
</g>
<!-- structure of living abstractions -->
<g id="node2" class="node">
<title>structure of living abstractions</title>
<ellipse fill="none" stroke="black" cx="299.88" cy="-62.29" rx="118.08" ry="18"/>
<text text-anchor="middle" x="299.88" y="-58.59" font-family="Times,serif" font-size="14.00">structure of living abstractions</text>
</g>
<!-- outside interfaces&#45;&gt;structure of living abstractions -->
<g id="edge1" class="edge">
<title>outside interfaces&#45;&gt;structure of living abstractions</title>
<path fill="none" stroke="black" d="M145.63,-62.29C153.86,-62.29 162.43,-62.29 171.11,-62.29"/>
<polygon fill="black" stroke="black" points="171.36,-65.79 181.36,-62.29 171.36,-58.79 171.36,-65.79"/>
</g>
<!-- outside -->
<g id="node3" class="node">
<title>outside</title>
<ellipse fill="none" stroke="black" cx="490.56" cy="-62.29" rx="36.29" ry="18"/>
<text text-anchor="middle" x="490.56" y="-58.59" font-family="Times,serif" font-size="14.00">outside</text>
</g>
<!-- structure of living abstractions&#45;&gt;outside -->
<g id="edge2" class="edge">
<title>structure of living abstractions&#45;&gt;outside</title>
<path fill="none" stroke="black" d="M418.23,-62.29C427.19,-62.29 435.86,-62.29 443.88,-62.29"/>
<polygon fill="black" stroke="black" points="444.02,-65.79 454.02,-62.29 444.02,-58.79 444.02,-65.79"/>
</g>
<!-- outside&#45;&gt;outside interfaces -->
<g id="edge3" class="edge">
<title>outside&#45;&gt;outside interfaces</title>
<path fill="none" stroke="black" d="M463.77,-49.95C450.47,-44.26 433.81,-38.15 418.17,-35.29 314.73,-16.39 285.94,-22.42 181.59,-35.29 164.14,-37.44 145.46,-41.48 128.63,-45.8"/>
<polygon fill="black" stroke="black" points="127.73,-42.41 118.96,-48.36 129.52,-49.18 127.73,-42.41"/>
</g>
</g>
</svg>
