<?xml version="1.0" encoding="UTF-8" standalone="no"?>
<!DOCTYPE svg PUBLIC "-//W3C//DTD SVG 1.1//EN"
 "http://www.w3.org/Graphics/SVG/1.1/DTD/svg11.dtd">
<!-- Generated by graphviz version 2.47.3 (20210619.1520)
 -->
<!-- Pages: 1 -->
<svg width="781pt" height="397pt"
 viewBox="0.00 0.00 781.14 396.67" xmlns="http://www.w3.org/2000/svg" xmlns:xlink="http://www.w3.org/1999/xlink">
<g id="graph0" class="graph" transform="scale(1 1) rotate(0) translate(4 392.67)">
<polygon fill="white" stroke="transparent" points="-4,4 -4,-392.67 777.14,-392.67 777.14,4 -4,4"/>
<g id="clust1" class="cluster">
<title>cluster_inner</title>
<polygon fill="none" stroke="black" points="173.59,-89.67 173.59,-380.67 672.35,-380.67 672.35,-89.67 173.59,-89.67"/>
<text text-anchor="middle" x="422.97" y="-365.47" font-family="Times,serif" font-size="14.00">intelligent system</text>
</g>
<!-- direct memory -->
<g id="node1" class="node">
<title>direct memory</title>
<ellipse fill="none" stroke="green" cx="251.13" cy="-223.67" rx="63.89" ry="18"/>
<text text-anchor="middle" x="251.13" y="-219.97" font-family="Times,serif" font-size="14.00">direct memory</text>
</g>
<!-- direct memory&#45;&gt;direct memory -->
<g id="edge2" class="edge">
<title>direct memory:e&#45;&gt;direct memory:w</title>
<path fill="none" stroke="black" stroke-dasharray="5,2" d="M315.13,-223.67C358.13,-235.67 358.13,-259.67 251.13,-259.67 152.91,-259.67 144.85,-239.44 177.45,-226.84"/>
<polygon fill="black" stroke="black" points="178.72,-230.11 187.13,-223.67 176.54,-223.46 178.72,-230.11"/>
</g>
<!-- decision system -->
<g id="node2" class="node">
<title>decision system</title>
<ellipse fill="none" stroke="green" cx="424.27" cy="-223.67" rx="67.69" ry="18"/>
<text text-anchor="middle" x="424.27" y="-219.97" font-family="Times,serif" font-size="14.00">decision system</text>
</g>
<!-- direct memory&#45;&gt;decision system -->
<g id="edge1" class="edge">
<title>direct memory&#45;&gt;decision system</title>
<path fill="none" stroke="green" d="M314.88,-223.67C325.15,-223.67 335.89,-223.67 346.45,-223.67"/>
<polygon fill="green" stroke="green" points="346.49,-227.17 356.49,-223.67 346.49,-220.17 346.49,-227.17"/>
</g>
<!-- system 1 -->
<g id="node3" class="node">
<title>system 1</title>
<ellipse fill="none" stroke="black" stroke-dasharray="5,2" cx="596.11" cy="-169.67" rx="42.49" ry="18"/>
<text text-anchor="middle" x="596.11" y="-165.97" font-family="Times,serif" font-size="14.00">system 1</text>
</g>
<!-- decision system&#45;&gt;system 1 -->
<g id="edge3" class="edge">
<title>decision system&#45;&gt;system 1</title>
<path fill="none" stroke="black" stroke-dasharray="5,2" d="M468.57,-209.9C494.16,-201.76 526.46,-191.49 552.02,-183.37"/>
<polygon fill="black" stroke="black" points="553.34,-186.62 561.81,-180.25 551.22,-179.95 553.34,-186.62"/>
</g>
<!-- system 2 -->
<g id="node4" class="node">
<title>system 2</title>
<ellipse fill="none" stroke="black" stroke-dasharray="5,2" cx="596.11" cy="-223.67" rx="42.49" ry="18"/>
<text text-anchor="middle" x="596.11" y="-219.97" font-family="Times,serif" font-size="14.00">system 2</text>
</g>
<!-- decision system&#45;&gt;system 2 -->
<g id="edge4" class="edge">
<title>decision system&#45;&gt;system 2</title>
<path fill="none" stroke="black" stroke-dasharray="5,2" d="M491.91,-223.67C508.98,-223.67 527.09,-223.67 543.3,-223.67"/>
<polygon fill="black" stroke="black" points="543.64,-227.17 553.64,-223.67 543.64,-220.17 543.64,-227.17"/>
</g>
<!-- [...] -->
<g id="node5" class="node">
<title>[...]</title>
<ellipse fill="none" stroke="black" stroke-dasharray="5,2" cx="596.11" cy="-277.67" rx="27" ry="18"/>
<text text-anchor="middle" x="596.11" y="-273.97" font-family="Times,serif" font-size="14.00">[...]</text>
</g>
<!-- decision system&#45;&gt;[...] -->
<g id="edge5" class="edge">
<title>decision system&#45;&gt;[...]</title>
<path fill="none" stroke="black" stroke-dasharray="5,2" d="M468.57,-237.43C497.5,-246.63 534.99,-258.55 561.64,-267.03"/>
<polygon fill="black" stroke="black" points="560.69,-270.4 571.28,-270.09 562.81,-263.72 560.69,-270.4"/>
</g>
<!-- system n -->
<g id="node6" class="node">
<title>system n</title>
<ellipse fill="none" stroke="black" stroke-dasharray="5,2" cx="596.11" cy="-331.67" rx="42.49" ry="18"/>
<text text-anchor="middle" x="596.11" y="-327.97" font-family="Times,serif" font-size="14.00">system n</text>
</g>
<!-- decision system&#45;&gt;system n -->
<g id="edge6" class="edge">
<title>decision system&#45;&gt;system n</title>
<path fill="none" stroke="black" stroke-dasharray="5,2" d="M443.74,-240.95C463.42,-258.7 496.05,-286.24 527.86,-304.67 535.69,-309.2 544.43,-313.32 552.95,-316.9"/>
<polygon fill="black" stroke="black" points="551.83,-320.22 562.41,-320.7 554.44,-313.72 551.83,-320.22"/>
</g>
<!-- memory system -->
<g id="node7" class="node">
<title>memory system</title>
<ellipse fill="none" stroke="green" cx="596.11" cy="-115.67" rx="68.49" ry="18"/>
<text text-anchor="middle" x="596.11" y="-111.97" font-family="Times,serif" font-size="14.00">memory system</text>
</g>
<!-- decision system&#45;&gt;memory system -->
<g id="edge12" class="edge">
<title>decision system&#45;&gt;memory system</title>
<path fill="none" stroke="green" d="M443.74,-206.38C463.42,-188.64 496.05,-161.09 527.86,-142.67 533.22,-139.56 539,-136.65 544.85,-133.98"/>
<polygon fill="green" stroke="green" points="546.27,-137.18 554.04,-129.98 543.47,-130.76 546.27,-137.18"/>
</g>
<!-- outside -->
<g id="node10" class="node">
<title>outside</title>
<ellipse fill="none" stroke="black" stroke-dasharray="5,2" cx="736.75" cy="-250.67" rx="36.29" ry="18"/>
<text text-anchor="middle" x="736.75" y="-246.97" font-family="Times,serif" font-size="14.00">outside</text>
</g>
<!-- system 1&#45;&gt;outside -->
<g id="edge8" class="edge">
<title>system 1&#45;&gt;outside</title>
<path fill="none" stroke="black" stroke-dasharray="5,2" d="M631.98,-179.27C645.1,-183.62 659.86,-189.43 672.35,-196.67 686.89,-205.09 701.29,-216.99 712.68,-227.47"/>
<polygon fill="black" stroke="black" points="710.38,-230.12 720.05,-234.45 715.19,-225.03 710.38,-230.12"/>
</g>
<!-- system 2&#45;&gt;outside -->
<g id="edge9" class="edge">
<title>system 2&#45;&gt;outside</title>
<path fill="none" stroke="black" stroke-dasharray="5,2" d="M634.99,-231.04C652.85,-234.52 674.24,-238.69 692.71,-242.28"/>
<polygon fill="black" stroke="black" points="692.14,-245.74 702.63,-244.22 693.48,-238.87 692.14,-245.74"/>
</g>
<!-- [...]&#45;&gt;outside -->
<g id="edge10" class="edge">
<title>[...]&#45;&gt;outside</title>
<path fill="none" stroke="black" stroke-dasharray="5,2" d="M622.21,-272.78C641.86,-268.95 669.63,-263.54 692.79,-259.03"/>
<polygon fill="black" stroke="black" points="693.58,-262.44 702.73,-257.1 692.25,-255.57 693.58,-262.44"/>
</g>
<!-- system n&#45;&gt;outside -->
<g id="edge11" class="edge">
<title>system n&#45;&gt;outside</title>
<path fill="none" stroke="black" stroke-dasharray="5,2" d="M631.98,-322.06C645.1,-317.71 659.86,-311.9 672.35,-304.67 686.89,-296.25 701.29,-284.35 712.68,-273.86"/>
<polygon fill="black" stroke="black" points="715.19,-276.3 720.05,-266.88 710.38,-271.21 715.19,-276.3"/>
</g>
<!-- general memory -->
<g id="node8" class="node">
<title>general memory</title>
<ellipse fill="none" stroke="green" cx="251.13" cy="-143.67" rx="69.59" ry="18"/>
<text text-anchor="middle" x="251.13" y="-139.97" font-family="Times,serif" font-size="14.00">general memory</text>
</g>
<!-- memory system&#45;&gt;general memory -->
<g id="edge13" class="edge">
<title>memory system&#45;&gt;general memory</title>
<path fill="none" stroke="green" d="M530.77,-120.92C473.27,-125.61 388.97,-132.49 328.16,-137.46"/>
<polygon fill="green" stroke="green" points="327.54,-134 317.85,-138.3 328.11,-140.97 327.54,-134"/>
</g>
<!-- general memory&#45;&gt;direct memory -->
<g id="edge14" class="edge">
<title>general memory&#45;&gt;direct memory</title>
<path fill="none" stroke="green" d="M251.13,-161.79C251.13,-172.89 251.13,-184 251.13,-195.1"/>
<polygon fill="green" stroke="green" points="247.63,-195.3 251.13,-205.3 254.63,-195.3 247.63,-195.3"/>
</g>
<!-- outside interfaces -->
<g id="node9" class="node">
<title>outside interfaces</title>
<ellipse fill="none" stroke="black" stroke-dasharray="5,2" cx="72.79" cy="-223.67" rx="72.59" ry="18"/>
<text text-anchor="middle" x="72.79" y="-219.97" font-family="Times,serif" font-size="14.00">outside interfaces</text>
</g>
<!-- outside interfaces&#45;&gt;direct memory -->
<g id="edge7" class="edge">
<title>outside interfaces&#45;&gt;direct memory</title>
<path fill="none" stroke="black" stroke-dasharray="5,2" d="M145.77,-223.67C156.13,-223.67 166.79,-223.67 177.17,-223.67"/>
<polygon fill="black" stroke="black" points="177.43,-227.17 187.43,-223.67 177.43,-220.17 177.43,-227.17"/>
</g>
<!-- outside&#45;&gt;outside interfaces -->
<g id="edge15" class="edge">
<title>outside&#45;&gt;outside interfaces</title>
<path fill="none" stroke="black" stroke-dasharray="5,2" d="M735.05,-232.53C732.58,-197.15 721.55,-119.47 672.35,-85.67 489.64,39.86 370.99,15.19 173.59,-85.67 128.49,-108.71 99.07,-162.69 84.53,-195.9"/>
<polygon fill="black" stroke="black" points="81.15,-194.91 80.5,-205.48 87.6,-197.62 81.15,-194.91"/>
</g>
</g>
</svg>
