<?xml version="1.0" encoding="UTF-8" standalone="no"?>
<!DOCTYPE svg PUBLIC "-//W3C//DTD SVG 1.1//EN"
 "http://www.w3.org/Graphics/SVG/1.1/DTD/svg11.dtd">
<!-- Generated by graphviz version 2.47.3 (20210619.1520)
 -->
<!-- Pages: 1 -->
<svg width="715pt" height="261pt"
 viewBox="0.00 0.00 714.85 261.00" xmlns="http://www.w3.org/2000/svg" xmlns:xlink="http://www.w3.org/1999/xlink">
<g id="graph0" class="graph" transform="scale(1 1) rotate(0) translate(4 257)">
<polygon fill="white" stroke="transparent" points="-4,4 -4,-257 710.85,-257 710.85,4 -4,4"/>
<g id="clust1" class="cluster">
<title>cluster_inner</title>
<polygon fill="none" stroke="black" points="100.79,-8 100.79,-245 535.86,-245 535.86,-8 100.79,-8"/>
<text text-anchor="middle" x="318.33" y="-229.8" font-family="Times,serif" font-size="14.00">primary system</text>
</g>
<!-- direct memory -->
<g id="node1" class="node">
<title>direct memory</title>
<ellipse fill="none" stroke="black" cx="172.49" cy="-115" rx="63.89" ry="18"/>
<text text-anchor="middle" x="172.49" y="-111.3" font-family="Times,serif" font-size="14.00">direct memory</text>
</g>
<!-- direct memory&#45;&gt;direct memory -->
<g id="edge3" class="edge">
<title>direct memory:e&#45;&gt;direct memory:w</title>
<path fill="none" stroke="gold" d="M236.49,-115C270.49,-127 270.49,-151 172.49,-151 84.44,-151 75.5,-131.63 99.25,-118.99"/>
<polygon fill="gold" stroke="gold" points="100.69,-122.18 108.49,-115 97.92,-115.75 100.69,-122.18"/>
</g>
<!-- decision system -->
<g id="node2" class="node">
<title>decision system</title>
<ellipse fill="none" stroke="black" cx="339.78" cy="-115" rx="67.69" ry="18"/>
<text text-anchor="middle" x="339.78" y="-111.3" font-family="Times,serif" font-size="14.00">decision system</text>
</g>
<!-- direct memory&#45;&gt;decision system -->
<g id="edge2" class="edge">
<title>direct memory&#45;&gt;decision system</title>
<path fill="none" stroke="gold" d="M236.45,-115C244.84,-115 253.52,-115 262.12,-115"/>
<polygon fill="gold" stroke="gold" points="262.14,-118.5 272.14,-115 262.14,-111.5 262.14,-118.5"/>
</g>
<!-- system 1 -->
<g id="node3" class="node">
<title>system 1</title>
<ellipse fill="none" stroke="black" cx="485.62" cy="-34" rx="42.49" ry="18"/>
<text text-anchor="middle" x="485.62" y="-30.3" font-family="Times,serif" font-size="14.00">system 1</text>
</g>
<!-- decision system&#45;&gt;system 1 -->
<g id="edge4" class="edge">
<title>decision system&#45;&gt;system 1</title>
<path fill="none" stroke="gold" d="M369.54,-98.8C392.8,-85.7 425.62,-67.22 450.27,-53.34"/>
<polygon fill="gold" stroke="gold" points="452.28,-56.23 459.27,-48.27 448.84,-50.13 452.28,-56.23"/>
</g>
<!-- system 2 -->
<g id="node4" class="node">
<title>system 2</title>
<ellipse fill="none" stroke="black" cx="485.62" cy="-88" rx="42.49" ry="18"/>
<text text-anchor="middle" x="485.62" y="-84.3" font-family="Times,serif" font-size="14.00">system 2</text>
</g>
<!-- decision system&#45;&gt;system 2 -->
<g id="edge5" class="edge">
<title>decision system&#45;&gt;system 2</title>
<path fill="none" stroke="gold" d="M395.57,-104.72C408.97,-102.2 423.22,-99.52 436.3,-97.07"/>
<polygon fill="gold" stroke="gold" points="437.32,-100.44 446.5,-95.15 436.03,-93.56 437.32,-100.44"/>
</g>
<!-- [...] -->
<g id="node5" class="node">
<title>[...]</title>
<ellipse fill="none" stroke="black" cx="485.62" cy="-142" rx="27" ry="18"/>
<text text-anchor="middle" x="485.62" y="-138.3" font-family="Times,serif" font-size="14.00">[...]</text>
</g>
<!-- decision system&#45;&gt;[...] -->
<g id="edge6" class="edge">
<title>decision system&#45;&gt;[...]</title>
<path fill="none" stroke="gold" d="M395.57,-125.28C413.54,-128.66 433.03,-132.32 449.18,-135.35"/>
<polygon fill="gold" stroke="gold" points="448.79,-138.84 459.27,-137.24 450.08,-131.96 448.79,-138.84"/>
</g>
<!-- system n -->
<g id="node6" class="node">
<title>system n</title>
<ellipse fill="none" stroke="black" cx="485.62" cy="-196" rx="42.49" ry="18"/>
<text text-anchor="middle" x="485.62" y="-192.3" font-family="Times,serif" font-size="14.00">system n</text>
</g>
<!-- decision system&#45;&gt;system n -->
<g id="edge7" class="edge">
<title>decision system&#45;&gt;system n</title>
<path fill="none" stroke="gold" d="M369.54,-131.2C392.8,-144.3 425.62,-162.78 450.27,-176.66"/>
<polygon fill="gold" stroke="gold" points="448.84,-179.87 459.27,-181.73 452.28,-173.77 448.84,-179.87"/>
</g>
<!-- exterior interface -->
<g id="node8" class="node">
<title>exterior interface</title>
<ellipse fill="none" stroke="black" cx="635.36" cy="-115" rx="71.49" ry="18"/>
<text text-anchor="middle" x="635.36" y="-111.3" font-family="Times,serif" font-size="14.00">exterior interface</text>
</g>
<!-- system 1&#45;&gt;exterior interface -->
<g id="edge8" class="edge">
<title>system 1&#45;&gt;exterior interface</title>
<path fill="none" stroke="black" d="M512.35,-48.11C535.35,-60.72 569.38,-79.37 595.66,-93.78"/>
<polygon fill="black" stroke="black" points="594.15,-96.95 604.6,-98.68 597.51,-90.81 594.15,-96.95"/>
</g>
<!-- system 2&#45;&gt;exterior interface -->
<g id="edge9" class="edge">
<title>system 2&#45;&gt;exterior interface</title>
<path fill="none" stroke="black" d="M524.66,-94.95C537.58,-97.31 552.43,-100.03 566.95,-102.68"/>
<polygon fill="black" stroke="black" points="566.45,-106.15 576.92,-104.5 567.71,-99.26 566.45,-106.15"/>
</g>
<!-- [...]&#45;&gt;exterior interface -->
<g id="edge10" class="edge">
<title>[...]&#45;&gt;exterior interface</title>
<path fill="none" stroke="black" d="M512.01,-137.36C527.33,-134.56 547.62,-130.85 567.27,-127.26"/>
<polygon fill="black" stroke="black" points="567.94,-130.7 577.14,-125.46 566.68,-123.81 567.94,-130.7"/>
</g>
<!-- system n&#45;&gt;exterior interface -->
<g id="edge11" class="edge">
<title>system n&#45;&gt;exterior interface</title>
<path fill="none" stroke="black" d="M512.35,-181.89C535.35,-169.28 569.38,-150.63 595.66,-136.22"/>
<polygon fill="black" stroke="black" points="597.51,-139.19 604.6,-131.32 594.15,-133.05 597.51,-139.19"/>
</g>
<!-- outside -->
<g id="node7" class="node">
<title>outside</title>
<ellipse fill="none" stroke="black" cx="36.4" cy="-115" rx="36.29" ry="18"/>
<text text-anchor="middle" x="36.4" y="-111.3" font-family="Times,serif" font-size="14.00">outside</text>
</g>
<!-- outside&#45;&gt;direct memory -->
<g id="edge1" class="edge">
<title>outside&#45;&gt;direct memory</title>
<path fill="none" stroke="gold" d="M72.98,-115C80.98,-115 89.76,-115 98.68,-115"/>
<polygon fill="gold" stroke="gold" points="98.77,-118.5 108.77,-115 98.77,-111.5 98.77,-118.5"/>
</g>
</g>
</svg>
