<?xml version="1.0" encoding="UTF-8" standalone="no"?>
<!DOCTYPE svg PUBLIC "-//W3C//DTD SVG 1.1//EN"
 "http://www.w3.org/Graphics/SVG/1.1/DTD/svg11.dtd">
<!-- Generated by graphviz version 2.47.3 (20210619.1520)
 -->
<!-- Pages: 1 -->
<svg width="717pt" height="261pt"
 viewBox="0.00 0.00 717.45 261.00" xmlns="http://www.w3.org/2000/svg" xmlns:xlink="http://www.w3.org/1999/xlink">
<g id="graph0" class="graph" transform="scale(1 1) rotate(0) translate(4 257)">
<polygon fill="white" stroke="transparent" points="-4,4 -4,-257 713.45,-257 713.45,4 -4,4"/>
<g id="clust1" class="cluster">
<title>cluster_inner</title>
<polygon fill="none" stroke="black" points="173.59,-8 173.59,-245 608.66,-245 608.66,-8 173.59,-8"/>
<text text-anchor="middle" x="391.12" y="-229.8" font-family="Times,serif" font-size="14.00">primary system</text>
</g>
<!-- direct memory -->
<g id="node1" class="node">
<title>direct memory</title>
<ellipse fill="none" stroke="red" cx="245.28" cy="-115" rx="63.89" ry="18"/>
<text text-anchor="middle" x="245.28" y="-111.3" font-family="Times,serif" font-size="14.00">direct memory</text>
</g>
<!-- direct memory&#45;&gt;direct memory -->
<g id="edge2" class="edge">
<title>direct memory:e&#45;&gt;direct memory:w</title>
<path fill="none" stroke="red" d="M309.28,-115C350.78,-127 350.78,-151 245.28,-151 148.85,-151 140.56,-130.95 171.54,-118.34"/>
<polygon fill="red" stroke="red" points="172.96,-121.55 181.28,-115 170.69,-114.93 172.96,-121.55"/>
</g>
<!-- decision system -->
<g id="node2" class="node">
<title>decision system</title>
<ellipse fill="none" stroke="black" cx="412.57" cy="-115" rx="67.69" ry="18"/>
<text text-anchor="middle" x="412.57" y="-111.3" font-family="Times,serif" font-size="14.00">decision system</text>
</g>
<!-- direct memory&#45;&gt;decision system -->
<g id="edge1" class="edge">
<title>direct memory&#45;&gt;decision system</title>
<path fill="none" stroke="red" d="M309.24,-115C317.63,-115 326.32,-115 334.91,-115"/>
<polygon fill="red" stroke="red" points="334.94,-118.5 344.94,-115 334.94,-111.5 334.94,-118.5"/>
</g>
<!-- system 1 -->
<g id="node3" class="node">
<title>system 1</title>
<ellipse fill="none" stroke="black" cx="558.41" cy="-34" rx="42.49" ry="18"/>
<text text-anchor="middle" x="558.41" y="-30.3" font-family="Times,serif" font-size="14.00">system 1</text>
</g>
<!-- decision system&#45;&gt;system 1 -->
<g id="edge3" class="edge">
<title>decision system&#45;&gt;system 1</title>
<path fill="none" stroke="red" d="M442.33,-98.8C465.6,-85.7 498.42,-67.22 523.06,-53.34"/>
<polygon fill="red" stroke="red" points="525.07,-56.23 532.07,-48.27 521.64,-50.13 525.07,-56.23"/>
</g>
<!-- system 2 -->
<g id="node4" class="node">
<title>system 2</title>
<ellipse fill="none" stroke="black" cx="558.41" cy="-88" rx="42.49" ry="18"/>
<text text-anchor="middle" x="558.41" y="-84.3" font-family="Times,serif" font-size="14.00">system 2</text>
</g>
<!-- decision system&#45;&gt;system 2 -->
<g id="edge4" class="edge">
<title>decision system&#45;&gt;system 2</title>
<path fill="none" stroke="red" d="M468.36,-104.72C481.77,-102.2 496.02,-99.52 509.09,-97.07"/>
<polygon fill="red" stroke="red" points="510.11,-100.44 519.29,-95.15 508.82,-93.56 510.11,-100.44"/>
</g>
<!-- [...] -->
<g id="node5" class="node">
<title>[...]</title>
<ellipse fill="none" stroke="black" cx="558.41" cy="-142" rx="27" ry="18"/>
<text text-anchor="middle" x="558.41" y="-138.3" font-family="Times,serif" font-size="14.00">[...]</text>
</g>
<!-- decision system&#45;&gt;[...] -->
<g id="edge5" class="edge">
<title>decision system&#45;&gt;[...]</title>
<path fill="none" stroke="red" d="M468.36,-125.28C486.34,-128.66 505.83,-132.32 521.98,-135.35"/>
<polygon fill="red" stroke="red" points="521.58,-138.84 532.06,-137.24 522.88,-131.96 521.58,-138.84"/>
</g>
<!-- system n -->
<g id="node6" class="node">
<title>system n</title>
<ellipse fill="none" stroke="black" cx="558.41" cy="-196" rx="42.49" ry="18"/>
<text text-anchor="middle" x="558.41" y="-192.3" font-family="Times,serif" font-size="14.00">system n</text>
</g>
<!-- decision system&#45;&gt;system n -->
<g id="edge6" class="edge">
<title>decision system&#45;&gt;system n</title>
<path fill="none" stroke="red" d="M442.33,-131.2C465.6,-144.3 498.42,-162.78 523.06,-176.66"/>
<polygon fill="red" stroke="red" points="521.64,-179.87 532.07,-181.73 525.07,-173.77 521.64,-179.87"/>
</g>
<!-- outside -->
<g id="node8" class="node">
<title>outside</title>
<ellipse fill="none" stroke="black" stroke-dasharray="5,2" cx="673.05" cy="-115" rx="36.29" ry="18"/>
<text text-anchor="middle" x="673.05" y="-111.3" font-family="Times,serif" font-size="14.00">outside</text>
</g>
<!-- system 1&#45;&gt;outside -->
<g id="edge8" class="edge">
<title>system 1&#45;&gt;outside</title>
<path fill="none" stroke="black" stroke-dasharray="5,2" d="M586.58,-47.61C593.93,-51.63 601.75,-56.24 608.66,-61 622.29,-70.4 636.42,-82.2 647.87,-92.37"/>
<polygon fill="black" stroke="black" points="645.56,-95 655.33,-99.1 650.25,-89.81 645.56,-95"/>
</g>
<!-- system 2&#45;&gt;outside -->
<g id="edge9" class="edge">
<title>system 2&#45;&gt;outside</title>
<path fill="none" stroke="black" stroke-dasharray="5,2" d="M595.67,-96.69C606.71,-99.34 618.94,-102.27 630.32,-105"/>
<polygon fill="black" stroke="black" points="629.5,-108.4 640.04,-107.33 631.13,-101.59 629.5,-108.4"/>
</g>
<!-- [...]&#45;&gt;outside -->
<g id="edge10" class="edge">
<title>[...]&#45;&gt;outside</title>
<path fill="none" stroke="black" stroke-dasharray="5,2" d="M584.13,-136.07C597.62,-132.84 614.7,-128.75 630.2,-125.03"/>
<polygon fill="black" stroke="black" points="631.2,-128.39 640.11,-122.66 629.57,-121.58 631.2,-128.39"/>
</g>
<!-- system n&#45;&gt;outside -->
<g id="edge11" class="edge">
<title>system n&#45;&gt;outside</title>
<path fill="none" stroke="black" stroke-dasharray="5,2" d="M586.58,-182.39C593.93,-178.37 601.75,-173.76 608.66,-169 622.29,-159.6 636.42,-147.8 647.87,-137.63"/>
<polygon fill="black" stroke="black" points="650.25,-140.19 655.33,-130.9 645.56,-135 650.25,-140.19"/>
</g>
<!-- outside interfaces -->
<g id="node7" class="node">
<title>outside interfaces</title>
<ellipse fill="none" stroke="black" stroke-dasharray="5,2" cx="72.79" cy="-115" rx="72.59" ry="18"/>
<text text-anchor="middle" x="72.79" y="-111.3" font-family="Times,serif" font-size="14.00">outside interfaces</text>
</g>
<!-- outside interfaces&#45;&gt;direct memory -->
<g id="edge7" class="edge">
<title>outside interfaces&#45;&gt;direct memory</title>
<path fill="none" stroke="black" stroke-dasharray="5,2" d="M145.6,-115C154.08,-115 162.73,-115 171.23,-115"/>
<polygon fill="black" stroke="black" points="171.48,-118.5 181.48,-115 171.48,-111.5 171.48,-118.5"/>
</g>
</g>
</svg>
