<?xml version="1.0" encoding="UTF-8" standalone="no"?>
<!DOCTYPE svg PUBLIC "-//W3C//DTD SVG 1.1//EN"
 "http://www.w3.org/Graphics/SVG/1.1/DTD/svg11.dtd">
<!-- Generated by graphviz version 2.47.3 (20210619.1520)
 -->
<!-- Pages: 1 -->
<svg width="678pt" height="407pt"
 viewBox="0.00 0.00 677.95 407.00" xmlns="http://www.w3.org/2000/svg" xmlns:xlink="http://www.w3.org/1999/xlink">
<g id="graph0" class="graph" transform="scale(1 1) rotate(0) translate(4 403)">
<polygon fill="white" stroke="transparent" points="-4,4 -4,-403 673.95,-403 673.95,4 -4,4"/>
<text text-anchor="middle" x="334.98" y="-7.8" font-family="Times,serif" font-size="14.00">structure of living abstractions</text>
<g id="clust4" class="cluster">
<title>cluster_caption</title>
<polygon fill="none" stroke="black" points="8,-177 8,-391 170.89,-391 170.89,-177 8,-177"/>
</g>
<!-- outside -->
<g id="node1" class="node">
<title>outside</title>
<ellipse fill="none" stroke="black" cx="89.44" cy="-149" rx="36.29" ry="18"/>
<text text-anchor="middle" x="89.44" y="-145.3" font-family="Times,serif" font-size="14.00">outside</text>
</g>
<!-- direct memory -->
<g id="node2" class="node">
<title>direct memory</title>
<ellipse fill="none" stroke="black" cx="262.58" cy="-149" rx="63.89" ry="18"/>
<text text-anchor="middle" x="262.58" y="-145.3" font-family="Times,serif" font-size="14.00">direct memory</text>
</g>
<!-- outside&#45;&gt;direct memory -->
<g id="edge1" class="edge">
<title>outside&#45;&gt;direct memory</title>
<path fill="none" stroke="gold" d="M125.9,-149C144.08,-149 166.9,-149 188.62,-149"/>
<polygon fill="gold" stroke="gold" points="188.83,-152.5 198.83,-149 188.83,-145.5 188.83,-152.5"/>
</g>
<!-- direct memory&#45;&gt;direct memory -->
<g id="edge3" class="edge">
<title>direct memory:e&#45;&gt;direct memory:w</title>
<path fill="none" stroke="gold" d="M326.58,-149C368.08,-161 368.08,-185 262.58,-185 166.15,-185 157.86,-164.95 188.84,-152.34"/>
<polygon fill="gold" stroke="gold" points="190.26,-155.55 198.58,-149 187.99,-148.93 190.26,-155.55"/>
</g>
<!-- decision system -->
<g id="node3" class="node">
<title>decision system</title>
<ellipse fill="none" stroke="black" cx="429.87" cy="-149" rx="67.69" ry="18"/>
<text text-anchor="middle" x="429.87" y="-145.3" font-family="Times,serif" font-size="14.00">decision system</text>
</g>
<!-- direct memory&#45;&gt;decision system -->
<g id="edge2" class="edge">
<title>direct memory&#45;&gt;decision system</title>
<path fill="none" stroke="gold" d="M326.54,-149C334.93,-149 343.62,-149 352.21,-149"/>
<polygon fill="gold" stroke="gold" points="352.24,-152.5 362.24,-149 352.24,-145.5 352.24,-152.5"/>
</g>
<!-- decision system&#45;&gt;direct memory -->
<g id="edge11" class="edge">
<title>decision system:se&#45;&gt;direct memory:sw</title>
<path fill="none" stroke="darkred" d="M448.87,-131C462.44,-117.43 294.68,-115.39 253.71,-124.88"/>
<polygon fill="darkred" stroke="darkred" points="251.46,-122.19 245.58,-131 255.68,-127.78 251.46,-122.19"/>
</g>
<!-- system 1 -->
<g id="node4" class="node">
<title>system 1</title>
<ellipse fill="none" stroke="black" cx="601.71" cy="-257" rx="42.49" ry="18"/>
<text text-anchor="middle" x="601.71" y="-253.3" font-family="Times,serif" font-size="14.00">system 1</text>
</g>
<!-- decision system&#45;&gt;system 1 -->
<g id="edge4" class="edge">
<title>decision system&#45;&gt;system 1</title>
<path fill="none" stroke="gold" d="M449.34,-166.29C469.02,-184.03 501.65,-211.57 533.46,-230 541.29,-234.54 550.03,-238.65 558.55,-242.23"/>
<polygon fill="gold" stroke="gold" points="557.43,-245.55 568.01,-246.03 560.04,-239.06 557.43,-245.55"/>
</g>
<!-- system 2 -->
<g id="node5" class="node">
<title>system 2</title>
<ellipse fill="none" stroke="black" cx="601.71" cy="-203" rx="42.49" ry="18"/>
<text text-anchor="middle" x="601.71" y="-199.3" font-family="Times,serif" font-size="14.00">system 2</text>
</g>
<!-- decision system&#45;&gt;system 2 -->
<g id="edge5" class="edge">
<title>decision system&#45;&gt;system 2</title>
<path fill="none" stroke="gold" d="M474.17,-162.77C499.76,-170.9 532.06,-181.17 557.62,-189.3"/>
<polygon fill="gold" stroke="gold" points="556.82,-192.72 567.41,-192.41 558.94,-186.05 556.82,-192.72"/>
</g>
<!-- [...] -->
<g id="node6" class="node">
<title>[...]</title>
<ellipse fill="none" stroke="black" cx="601.71" cy="-149" rx="27" ry="18"/>
<text text-anchor="middle" x="601.71" y="-145.3" font-family="Times,serif" font-size="14.00">[...]</text>
</g>
<!-- decision system&#45;&gt;[...] -->
<g id="edge6" class="edge">
<title>decision system&#45;&gt;[...]</title>
<path fill="none" stroke="gold" d="M497.51,-149C520.25,-149 544.82,-149 564.28,-149"/>
<polygon fill="gold" stroke="gold" points="564.53,-152.5 574.53,-149 564.53,-145.5 564.53,-152.5"/>
</g>
<!-- system n -->
<g id="node7" class="node">
<title>system n</title>
<ellipse fill="none" stroke="black" cx="601.71" cy="-95" rx="42.49" ry="18"/>
<text text-anchor="middle" x="601.71" y="-91.3" font-family="Times,serif" font-size="14.00">system n</text>
</g>
<!-- decision system&#45;&gt;system n -->
<g id="edge7" class="edge">
<title>decision system&#45;&gt;system n</title>
<path fill="none" stroke="gold" d="M474.17,-135.23C499.76,-127.1 532.06,-116.83 557.62,-108.7"/>
<polygon fill="gold" stroke="gold" points="558.94,-111.95 567.41,-105.59 556.82,-105.28 558.94,-111.95"/>
</g>
<!-- memory system -->
<g id="node8" class="node">
<title>memory system</title>
<ellipse fill="none" stroke="black" cx="601.71" cy="-41" rx="68.49" ry="18"/>
<text text-anchor="middle" x="601.71" y="-37.3" font-family="Times,serif" font-size="14.00">memory system</text>
</g>
<!-- decision system&#45;&gt;memory system -->
<g id="edge8" class="edge">
<title>decision system&#45;&gt;memory system</title>
<path fill="none" stroke="coral" d="M469.43,-134.39C479.15,-129.69 489.17,-123.88 497.46,-117 518.26,-99.75 512.11,-84.56 533.46,-68 537.75,-64.68 542.5,-61.71 547.44,-59.06"/>
<polygon fill="coral" stroke="coral" points="549.01,-62.19 556.47,-54.66 545.94,-55.9 549.01,-62.19"/>
</g>
<!-- general memory -->
<g id="node9" class="node">
<title>general memory</title>
<ellipse fill="none" stroke="black" cx="89.44" cy="-95" rx="69.59" ry="18"/>
<text text-anchor="middle" x="89.44" y="-91.3" font-family="Times,serif" font-size="14.00">general memory</text>
</g>
<!-- memory system&#45;&gt;general memory -->
<g id="edge9" class="edge">
<title>memory system&#45;&gt;general memory</title>
<path fill="none" stroke="coral" d="M537.92,-47.65C443.34,-57.65 264.72,-76.56 164.12,-87.2"/>
<polygon fill="coral" stroke="coral" points="163.61,-83.74 154.04,-88.27 164.35,-90.7 163.61,-83.74"/>
</g>
<!-- general memory&#45;&gt;direct memory -->
<g id="edge10" class="edge">
<title>general memory&#45;&gt;direct memory</title>
<path fill="none" stroke="coral" d="M134.52,-108.91C157.5,-116.16 185.74,-125.07 209.77,-132.65"/>
<polygon fill="coral" stroke="coral" points="208.84,-136.03 219.43,-135.7 210.95,-129.35 208.84,-136.03"/>
</g>
<!-- primary system -->
<g id="node10" class="node">
<title>primary system</title>
<ellipse fill="none" stroke="black" cx="89.44" cy="-347" rx="66.09" ry="18"/>
<text text-anchor="middle" x="89.44" y="-343.3" font-family="Times,serif" font-size="14.00">primary system</text>
</g>
<!-- primary system&#45;&gt;primary system -->
<g id="edge12" class="edge">
<title>primary system&#45;&gt;primary system</title>
<path fill="none" stroke="gold" d="M59.47,-363.29C52.24,-373.39 62.23,-383 89.44,-383 106.88,-383 117.24,-379.06 120.54,-373.57"/>
<polygon fill="gold" stroke="gold" points="123.98,-372.85 119.42,-363.29 117.02,-373.61 123.98,-372.85"/>
</g>
<!-- intelligent system -->
<g id="node11" class="node">
<title>intelligent system</title>
<ellipse fill="none" stroke="black" cx="89.44" cy="-275" rx="73.39" ry="18"/>
<text text-anchor="middle" x="89.44" y="-271.3" font-family="Times,serif" font-size="14.00">intelligent system</text>
</g>
<!-- intelligent system&#45;&gt;intelligent system -->
<g id="edge13" class="edge">
<title>intelligent system&#45;&gt;intelligent system</title>
<path fill="none" stroke="coral" d="M59.21,-291.66C52.49,-301.62 62.57,-311 89.44,-311 106.66,-311 116.98,-307.15 120.41,-301.77"/>
<polygon fill="coral" stroke="coral" points="123.89,-301.38 119.68,-291.66 116.91,-301.89 123.89,-301.38"/>
</g>
<!-- reflect system -->
<g id="node12" class="node">
<title>reflect system</title>
<ellipse fill="none" stroke="black" cx="89.44" cy="-203" rx="59.59" ry="18"/>
<text text-anchor="middle" x="89.44" y="-199.3" font-family="Times,serif" font-size="14.00">reflect system</text>
</g>
<!-- reflect system&#45;&gt;reflect system -->
<g id="edge14" class="edge">
<title>reflect system&#45;&gt;reflect system</title>
<path fill="none" stroke="darkred" d="M59.74,-218.92C52,-229.15 61.9,-239 89.44,-239 107.52,-239 118,-234.76 120.88,-228.95"/>
<polygon fill="darkred" stroke="darkred" points="124.29,-228.17 119.14,-218.92 117.4,-229.37 124.29,-228.17"/>
</g>
</g>
</svg>
