<?xml version="1.0" encoding="UTF-8" standalone="no"?>
<!DOCTYPE svg PUBLIC "-//W3C//DTD SVG 1.1//EN"
 "http://www.w3.org/Graphics/SVG/1.1/DTD/svg11.dtd">
<!-- Generated by graphviz version 2.47.3 (20210619.1520)
 -->
<!-- Pages: 1 -->
<svg width="869pt" height="521pt"
 viewBox="0.00 0.00 868.64 521.02" xmlns="http://www.w3.org/2000/svg" xmlns:xlink="http://www.w3.org/1999/xlink">
<g id="graph0" class="graph" transform="scale(1 1) rotate(0) translate(4 517.02)">
<polygon fill="white" stroke="transparent" points="-4,4 -4,-517.02 864.64,-517.02 864.64,4 -4,4"/>
<text text-anchor="middle" x="430.32" y="-7.8" font-family="Times,serif" font-size="14.00">whole system</text>
<g id="clust1" class="cluster">
<title>cluster_inner</title>
<polygon fill="none" stroke="black" points="190.89,-106.02 190.89,-397.02 689.65,-397.02 689.65,-106.02 190.89,-106.02"/>
<text text-anchor="middle" x="440.27" y="-381.82" font-family="Times,serif" font-size="14.00">structure of living abstractions</text>
</g>
<g id="clust6" class="cluster">
<title>cluster_caption</title>
<polygon fill="none" stroke="black" stroke-dasharray="5,2" points="8,-268.02 8,-505.02 170.89,-505.02 170.89,-268.02 8,-268.02"/>
<text text-anchor="middle" x="89.44" y="-489.82" font-family="Times,serif" font-size="14.00">Caption</text>
</g>
<!-- direct memory -->
<g id="node1" class="node">
<title>direct memory</title>
<ellipse fill="none" stroke="black" cx="268.43" cy="-240.02" rx="63.89" ry="18"/>
<text text-anchor="middle" x="268.43" y="-236.32" font-family="Times,serif" font-size="14.00">direct memory</text>
</g>
<!-- direct memory&#45;&gt;direct memory -->
<g id="edge3" class="edge">
<title>direct memory:e&#45;&gt;direct memory:w</title>
<path fill="none" stroke="gold" d="M332.43,-240.02C375.43,-252.02 375.43,-276.02 268.43,-276.02 170.21,-276.02 162.15,-255.8 194.75,-243.2"/>
<polygon fill="gold" stroke="gold" points="196.02,-246.47 204.43,-240.02 193.84,-239.82 196.02,-246.47"/>
</g>
<!-- decision system -->
<g id="node2" class="node">
<title>decision system</title>
<ellipse fill="none" stroke="black" cx="441.57" cy="-240.02" rx="67.69" ry="18"/>
<text text-anchor="middle" x="441.57" y="-236.32" font-family="Times,serif" font-size="14.00">decision system</text>
</g>
<!-- direct memory&#45;&gt;decision system -->
<g id="edge2" class="edge">
<title>direct memory&#45;&gt;decision system</title>
<path fill="none" stroke="gold" d="M332.18,-240.02C342.45,-240.02 353.19,-240.02 363.75,-240.02"/>
<polygon fill="gold" stroke="gold" points="363.79,-243.52 373.79,-240.02 363.79,-236.52 363.79,-243.52"/>
</g>
<!-- decision system&#45;&gt;direct memory -->
<g id="edge15" class="edge">
<title>decision system:se&#45;&gt;direct memory:sw</title>
<path fill="none" stroke="darkred" d="M460.57,-222.02C489.58,-193.01 278.76,-189.61 251.56,-211.82"/>
<polygon fill="darkred" stroke="darkred" points="248.06,-211.98 251.43,-222.02 255.06,-212.07 248.06,-211.98"/>
</g>
<!-- system 1 -->
<g id="node3" class="node">
<title>system 1</title>
<ellipse fill="none" stroke="black" cx="613.41" cy="-186.02" rx="42.49" ry="18"/>
<text text-anchor="middle" x="613.41" y="-182.32" font-family="Times,serif" font-size="14.00">system 1</text>
</g>
<!-- decision system&#45;&gt;system 1 -->
<g id="edge4" class="edge">
<title>decision system&#45;&gt;system 1</title>
<path fill="none" stroke="gold" d="M485.87,-226.26C511.46,-218.12 543.76,-207.85 569.32,-199.72"/>
<polygon fill="gold" stroke="gold" points="570.64,-202.98 579.11,-196.61 568.52,-196.31 570.64,-202.98"/>
</g>
<!-- system 2 -->
<g id="node4" class="node">
<title>system 2</title>
<ellipse fill="none" stroke="black" cx="613.41" cy="-240.02" rx="42.49" ry="18"/>
<text text-anchor="middle" x="613.41" y="-236.32" font-family="Times,serif" font-size="14.00">system 2</text>
</g>
<!-- decision system&#45;&gt;system 2 -->
<g id="edge5" class="edge">
<title>decision system&#45;&gt;system 2</title>
<path fill="none" stroke="gold" d="M509.21,-240.02C526.28,-240.02 544.39,-240.02 560.6,-240.02"/>
<polygon fill="gold" stroke="gold" points="560.94,-243.52 570.94,-240.02 560.94,-236.52 560.94,-243.52"/>
</g>
<!-- [...] -->
<g id="node5" class="node">
<title>[...]</title>
<ellipse fill="none" stroke="black" cx="613.41" cy="-294.02" rx="27" ry="18"/>
<text text-anchor="middle" x="613.41" y="-290.32" font-family="Times,serif" font-size="14.00">[...]</text>
</g>
<!-- decision system&#45;&gt;[...] -->
<g id="edge6" class="edge">
<title>decision system&#45;&gt;[...]</title>
<path fill="none" stroke="gold" d="M485.87,-253.79C514.8,-262.99 552.29,-274.91 578.94,-283.38"/>
<polygon fill="gold" stroke="gold" points="577.99,-286.75 588.58,-286.45 580.11,-280.08 577.99,-286.75"/>
</g>
<!-- system n -->
<g id="node6" class="node">
<title>system n</title>
<ellipse fill="none" stroke="black" cx="613.41" cy="-348.02" rx="42.49" ry="18"/>
<text text-anchor="middle" x="613.41" y="-344.32" font-family="Times,serif" font-size="14.00">system n</text>
</g>
<!-- decision system&#45;&gt;system n -->
<g id="edge7" class="edge">
<title>decision system&#45;&gt;system n</title>
<path fill="none" stroke="gold" d="M461.04,-257.31C480.72,-275.05 513.35,-302.59 545.16,-321.02 552.99,-325.56 561.73,-329.68 570.25,-333.26"/>
<polygon fill="gold" stroke="gold" points="569.13,-336.58 579.71,-337.06 571.74,-330.08 569.13,-336.58"/>
</g>
<!-- memory system -->
<g id="node7" class="node">
<title>memory system</title>
<ellipse fill="none" stroke="black" cx="613.41" cy="-132.02" rx="68.49" ry="18"/>
<text text-anchor="middle" x="613.41" y="-128.32" font-family="Times,serif" font-size="14.00">memory system</text>
</g>
<!-- decision system&#45;&gt;memory system -->
<g id="edge12" class="edge">
<title>decision system&#45;&gt;memory system</title>
<path fill="none" stroke="coral" d="M461.04,-222.73C480.72,-204.99 513.35,-177.45 545.16,-159.02 550.52,-155.92 556.3,-153.01 562.15,-150.34"/>
<polygon fill="coral" stroke="coral" points="563.57,-153.54 571.34,-146.34 560.77,-147.12 563.57,-153.54"/>
</g>
<!-- exterior interface -->
<g id="node10" class="node">
<title>exterior interface</title>
<ellipse fill="none" stroke="black" cx="789.14" cy="-267.02" rx="71.49" ry="18"/>
<text text-anchor="middle" x="789.14" y="-263.32" font-family="Times,serif" font-size="14.00">exterior interface</text>
</g>
<!-- system 1&#45;&gt;exterior interface -->
<g id="edge8" class="edge">
<title>system 1&#45;&gt;exterior interface</title>
<path fill="none" stroke="black" d="M647.82,-196.75C661.03,-201.32 676.24,-206.98 689.65,-213.02 710.8,-222.54 733.55,-234.87 751.85,-245.34"/>
<polygon fill="black" stroke="black" points="750.31,-248.49 760.72,-250.47 753.81,-242.43 750.31,-248.49"/>
</g>
<!-- system 2&#45;&gt;exterior interface -->
<g id="edge9" class="edge">
<title>system 2&#45;&gt;exterior interface</title>
<path fill="none" stroke="black" d="M653.4,-246.08C672.4,-249.04 695.84,-252.68 717.82,-256.09"/>
<polygon fill="black" stroke="black" points="717.37,-259.57 727.79,-257.64 718.45,-252.65 717.37,-259.57"/>
</g>
<!-- [...]&#45;&gt;exterior interface -->
<g id="edge10" class="edge">
<title>[...]&#45;&gt;exterior interface</title>
<path fill="none" stroke="black" d="M640.04,-290.04C660.55,-286.85 690.33,-282.22 717.82,-277.95"/>
<polygon fill="black" stroke="black" points="718.48,-281.39 727.82,-276.4 717.4,-274.48 718.48,-281.39"/>
</g>
<!-- system n&#45;&gt;exterior interface -->
<g id="edge11" class="edge">
<title>system n&#45;&gt;exterior interface</title>
<path fill="none" stroke="black" d="M647.82,-337.3C661.03,-332.73 676.24,-327.06 689.65,-321.02 710.8,-311.5 733.55,-299.18 751.85,-288.71"/>
<polygon fill="black" stroke="black" points="753.81,-291.61 760.72,-283.58 750.31,-285.55 753.81,-291.61"/>
</g>
<!-- general memory -->
<g id="node8" class="node">
<title>general memory</title>
<ellipse fill="none" stroke="black" cx="268.43" cy="-160.02" rx="69.59" ry="18"/>
<text text-anchor="middle" x="268.43" y="-156.32" font-family="Times,serif" font-size="14.00">general memory</text>
</g>
<!-- memory system&#45;&gt;general memory -->
<g id="edge13" class="edge">
<title>memory system&#45;&gt;general memory</title>
<path fill="none" stroke="coral" d="M548.07,-137.28C490.57,-141.97 406.27,-148.85 345.46,-153.82"/>
<polygon fill="coral" stroke="coral" points="344.84,-150.36 335.15,-154.66 345.41,-157.33 344.84,-150.36"/>
</g>
<!-- general memory&#45;&gt;direct memory -->
<g id="edge14" class="edge">
<title>general memory&#45;&gt;direct memory</title>
<path fill="none" stroke="coral" d="M268.43,-178.15C268.43,-189.25 268.43,-200.35 268.43,-211.46"/>
<polygon fill="coral" stroke="coral" points="264.93,-211.65 268.43,-221.65 271.93,-211.65 264.93,-211.65"/>
</g>
<!-- outside -->
<g id="node9" class="node">
<title>outside</title>
<ellipse fill="none" stroke="black" cx="89.44" cy="-240.02" rx="36.29" ry="18"/>
<text text-anchor="middle" x="89.44" y="-236.32" font-family="Times,serif" font-size="14.00">outside</text>
</g>
<!-- outside&#45;&gt;direct memory -->
<g id="edge1" class="edge">
<title>outside&#45;&gt;direct memory</title>
<path fill="none" stroke="gold" d="M126.26,-240.02C145.79,-240.02 170.71,-240.02 194.16,-240.02"/>
<polygon fill="gold" stroke="gold" points="194.45,-243.52 204.45,-240.02 194.45,-236.52 194.45,-243.52"/>
</g>
<!-- exterior interface&#45;&gt;outside -->
<g id="edge16" class="edge">
<title>exterior interface&#45;&gt;outside</title>
<path fill="none" stroke="black" d="M783.67,-248.85C773.76,-213.06 746.22,-134.14 689.65,-102.02 496.87,7.41 388.44,-1.47 190.89,-102.02 145.41,-125.17 115.67,-179.61 101.07,-212.78"/>
<polygon fill="black" stroke="black" points="97.7,-211.75 97.02,-222.33 104.15,-214.49 97.7,-211.75"/>
</g>
<!-- primary system -->
<g id="node11" class="node">
<title>primary system</title>
<ellipse fill="none" stroke="black" cx="89.44" cy="-438.02" rx="66.09" ry="18"/>
<text text-anchor="middle" x="89.44" y="-434.32" font-family="Times,serif" font-size="14.00">primary system</text>
</g>
<!-- primary system&#45;&gt;primary system -->
<g id="edge17" class="edge">
<title>primary system&#45;&gt;primary system</title>
<path fill="none" stroke="gold" d="M58.42,-454.31C50.94,-464.41 61.28,-474.02 89.44,-474.02 107.48,-474.02 118.21,-470.08 121.62,-464.59"/>
<polygon fill="gold" stroke="gold" points="125.06,-463.86 120.46,-454.31 118.11,-464.64 125.06,-463.86"/>
</g>
<!-- intelligent system -->
<g id="node12" class="node">
<title>intelligent system</title>
<ellipse fill="none" stroke="black" cx="89.44" cy="-366.02" rx="73.39" ry="18"/>
<text text-anchor="middle" x="89.44" y="-362.32" font-family="Times,serif" font-size="14.00">intelligent system</text>
</g>
<!-- intelligent system&#45;&gt;intelligent system -->
<g id="edge18" class="edge">
<title>intelligent system&#45;&gt;intelligent system</title>
<path fill="none" stroke="coral" d="M58.15,-382.69C51.2,-392.65 61.63,-402.02 89.44,-402.02 107.26,-402.02 117.94,-398.18 121.49,-392.79"/>
<polygon fill="coral" stroke="coral" points="124.97,-392.4 120.73,-382.69 117.99,-392.92 124.97,-392.4"/>
</g>
<!-- reflect system -->
<g id="node13" class="node">
<title>reflect system</title>
<ellipse fill="none" stroke="black" cx="89.44" cy="-294.02" rx="59.59" ry="18"/>
<text text-anchor="middle" x="89.44" y="-290.32" font-family="Times,serif" font-size="14.00">reflect system</text>
</g>
<!-- reflect system&#45;&gt;reflect system -->
<g id="edge19" class="edge">
<title>reflect system&#45;&gt;reflect system</title>
<path fill="none" stroke="darkred" d="M59.01,-309.56C50.44,-319.93 60.59,-330.02 89.44,-330.02 108.83,-330.02 119.77,-325.47 122.27,-319.33"/>
<polygon fill="darkred" stroke="darkred" points="125.65,-318.45 119.88,-309.56 118.85,-320.11 125.65,-318.45"/>
</g>
</g>
</svg>
